<svg width="184" height="41" viewBox="0 0 184 41" fill="none" xmlns="http://www.w3.org/2000/svg">
<g clip-path="url(#clip0)">
<path d="M150.53 1.5H10.57C5.56078 1.5 1.5 5.56078 1.5 10.57V30.01C1.5 35.0192 5.56078 39.08 10.57 39.08H150.53C155.539 39.08 159.6 35.0192 159.6 30.01V10.57C159.6 5.56078 155.539 1.5 150.53 1.5Z" stroke="#E6332A" stroke-width="3" stroke-miterlimit="10"/>
<path d="M17.81 14.2201C18.4227 14.1916 19.0314 14.3323 19.5695 14.6269C20.1075 14.9215 20.554 15.3585 20.86 15.8901C21.5991 17.2955 21.9446 18.8745 21.86 20.4601C21.9552 22.0561 21.6092 23.6476 20.86 25.0601C20.5528 25.5765 20.112 26.0005 19.584 26.2874C19.056 26.5743 18.4604 26.7134 17.86 26.6901C17.2419 26.7122 16.6294 26.5669 16.0872 26.2694C15.545 25.9719 15.0933 25.5333 14.78 25.0001C13.9985 23.6052 13.6308 22.0165 13.72 20.4201C13.6171 18.8267 13.9636 17.2363 14.72 15.8301C15.0411 15.3072 15.4981 14.8813 16.0423 14.5977C16.5865 14.3142 17.1974 14.1837 17.81 14.2201ZM15.86 20.4601C15.86 23.3734 16.5267 24.8301 17.86 24.8301C18.1806 24.8409 18.4965 24.75 18.7624 24.5704C19.0282 24.3908 19.2304 24.1316 19.34 23.8301C19.6903 22.7532 19.8395 21.621 19.78 20.4901C19.8404 19.3617 19.6877 18.232 19.33 17.1601C19.2208 16.8494 19.0178 16.5804 18.7491 16.39C18.4804 16.1997 18.1593 16.0974 17.83 16.0974C17.5007 16.0974 17.1795 16.1997 16.9109 16.39C16.6422 16.5804 16.4392 16.8494 16.33 17.1601C15.9618 18.2195 15.8022 19.3401 15.86 20.4601Z" fill="#E6332A"/>
<path d="M28.92 18.72H31.24L28.63 22.46L31.41 26.55H29L27.17 23.73L25.27 26.55H22.93L25.72 22.55L23.1 18.72H25.56L27.22 21.31L28.92 18.72Z" fill="#E6332A"/>
<path d="M40.3 26.5501H38.3V25.7401C38.017 26.0565 37.6701 26.3092 37.2823 26.4816C36.8944 26.654 36.4744 26.7421 36.05 26.7401C35.5522 26.7606 35.0558 26.6749 34.5937 26.4887C34.1316 26.3025 33.7145 26.02 33.37 25.6601C32.667 24.8673 32.3074 23.8279 32.37 22.7701C32.3504 22.2141 32.447 21.6601 32.6536 21.1435C32.8602 20.627 33.1723 20.1592 33.57 19.7701C33.9804 19.3738 34.4664 19.0643 34.9989 18.8598C35.5315 18.6554 36.0998 18.5602 36.67 18.5801C37.242 18.5582 37.8091 18.6931 38.31 18.9701V14.3601H40.31L40.3 26.5501ZM36.47 24.8301C36.8153 24.8229 37.1556 24.7456 37.4702 24.603C37.7848 24.4603 38.0671 24.2552 38.3 24.0001V20.8801C37.8401 20.5758 37.3014 20.4124 36.75 20.4101C36.1556 20.3925 35.5779 20.6078 35.14 21.0101C34.9241 21.2232 34.7556 21.4794 34.6453 21.7619C34.535 22.0445 34.4855 22.3471 34.5 22.6501C34.4692 23.2333 34.6706 23.8049 35.06 24.2401C35.2398 24.4327 35.4585 24.5849 35.7016 24.6866C35.9446 24.7883 36.2066 24.8373 36.47 24.8301Z" fill="#E6332A"/>
<path d="M50.3 18.82C50.3883 20.8109 49.7563 22.7669 48.52 24.33C47.3875 25.6963 45.765 26.565 44 26.75L43.34 25.16C44.4521 25.0281 45.493 24.5449 46.3114 23.7805C47.1297 23.0161 47.6828 22.0104 47.89 20.91C47.6277 21.2638 47.2828 21.5482 46.8854 21.7382C46.488 21.9282 46.0501 22.018 45.61 22C45.125 22.0088 44.6433 21.9185 44.1945 21.7345C43.7457 21.5505 43.3392 21.2767 43 20.93C42.6482 20.5762 42.3726 20.1542 42.1903 19.6898C42.008 19.2254 41.9228 18.7286 41.94 18.23C41.9132 17.6704 42.0094 17.1117 42.2219 16.5934C42.4344 16.075 42.7581 15.6096 43.17 15.23C43.9418 14.5256 44.9554 14.146 46 14.17C46.5876 14.1401 47.1746 14.2402 47.7191 14.4632C48.2636 14.6861 48.7522 15.0265 49.15 15.46C49.9515 16.3902 50.3634 17.5937 50.3 18.82ZM48.17 18.82C48.1995 18.1405 47.9908 17.472 47.58 16.93C47.3876 16.6926 47.1433 16.5024 46.8659 16.3742C46.5886 16.2459 46.2855 16.1829 45.98 16.19C45.7218 16.1813 45.4647 16.2287 45.2265 16.3288C44.9883 16.4289 44.7745 16.5794 44.6 16.77C44.4252 16.946 44.2873 17.1553 44.1946 17.3854C44.1019 17.6155 44.0561 17.8619 44.06 18.11C44.0545 18.3758 44.1021 18.6401 44.2 18.8874C44.2978 19.1346 44.444 19.3599 44.63 19.55C44.8189 19.748 45.0475 19.9038 45.3008 20.0072C45.5542 20.1106 45.8265 20.1593 46.1 20.15C46.5426 20.1681 46.9798 20.0478 47.3508 19.8059C47.7218 19.5639 48.0082 19.2123 48.17 18.8V18.82Z" fill="#E6332A"/>
<path d="M58.14 23.92L59.08 25.39C58.7152 25.8493 58.2443 26.213 57.7078 26.4499C57.1712 26.6868 56.5852 26.7898 56 26.75C55.4367 26.7738 54.8742 26.6853 54.3455 26.4896C53.8167 26.2939 53.3321 25.9949 52.92 25.61C52.5232 25.2217 52.2136 24.7534 52.0119 24.2361C51.8101 23.7188 51.7209 23.1645 51.75 22.61C51.735 22.0709 51.8291 21.5344 52.0267 21.0326C52.2243 20.5308 52.5214 20.0741 52.9 19.69C53.2759 19.3006 53.7288 18.9937 54.2298 18.7888C54.7308 18.584 55.269 18.4856 55.81 18.5C56.38 18.4585 56.9524 18.5319 57.4935 18.7157C58.0346 18.8995 58.5333 19.19 58.96 19.57L58 21.17C57.736 20.9138 57.4224 20.7142 57.0785 20.5835C56.7346 20.4528 56.3676 20.3938 56 20.41C55.4422 20.4037 54.904 20.6154 54.5 21C54.2834 21.2046 54.1133 21.4534 54.0011 21.7294C53.889 22.0054 53.8374 22.3024 53.85 22.6C53.8375 22.9046 53.8899 23.2083 54.0037 23.491C54.1175 23.7738 54.2901 24.0291 54.51 24.24C54.9507 24.6389 55.5257 24.8567 56.12 24.85C56.5042 24.852 56.8842 24.7697 57.2332 24.609C57.5821 24.4484 57.8917 24.2132 58.14 23.92Z" fill="#E6332A"/>
<path d="M68.45 18.8201C68.5382 20.811 67.9063 22.7671 66.67 24.3301C65.5495 25.6851 63.9471 26.5526 62.2 26.7501L61.54 25.1601C62.6508 25.0278 63.6903 24.5441 64.507 23.7796C65.3236 23.0151 65.8748 22.0097 66.08 20.9101C65.8161 21.2696 65.4666 21.5576 65.0632 21.748C64.6598 21.9383 64.2153 22.025 63.77 22.0001C63.2826 22.009 62.7986 21.9178 62.3479 21.732C61.8972 21.5462 61.4895 21.2699 61.15 20.9201C60.7982 20.5664 60.5226 20.1443 60.3403 19.6799C60.1579 19.2155 60.0728 18.7187 60.09 18.2201C60.063 17.6596 60.1601 17.1 60.3745 16.5814C60.5889 16.0628 60.9151 15.598 61.33 15.2201C62.1549 14.4594 63.2451 14.0523 64.3667 14.0859C65.4883 14.1196 66.5521 14.5913 67.33 15.4001C68.1355 16.3501 68.5375 17.5776 68.45 18.8201ZM66.33 18.8201C66.3557 18.1395 66.1436 17.4712 65.73 16.9301C65.5375 16.6927 65.2933 16.5026 65.0159 16.3743C64.7386 16.246 64.4355 16.183 64.13 16.1901C63.8717 16.1814 63.6147 16.2288 63.3764 16.3289C63.1382 16.429 62.9245 16.5795 62.75 16.7701C62.5751 16.9461 62.4373 17.1554 62.3446 17.3855C62.2518 17.6156 62.2061 17.862 62.21 18.1101C62.2045 18.3759 62.2521 18.6402 62.3499 18.8875C62.4478 19.1347 62.594 19.36 62.78 19.5501C62.9688 19.7481 63.1974 19.9039 63.4508 20.0073C63.7041 20.1108 63.9765 20.1594 64.25 20.1501C64.6939 20.1688 65.1327 20.049 65.5054 19.807C65.8782 19.5651 66.1663 19.2132 66.33 18.8001V18.8201Z" fill="#E6332A"/>
<path d="M78.12 18.82C78.2083 20.8109 77.5763 22.7669 76.34 24.33C75.2195 25.6849 73.6171 26.5525 71.87 26.75L71.2 25.16C72.3121 25.0281 73.353 24.5449 74.1714 23.7805C74.9897 23.0161 75.5428 22.0104 75.75 20.91C75.4839 21.2696 75.1326 21.5576 74.7276 21.7478C74.3227 21.9381 73.8768 22.0247 73.43 22C72.9443 22.0075 72.4622 21.9156 72.0133 21.7299C71.5645 21.5441 71.1584 21.2685 70.82 20.92C70.4682 20.5662 70.1926 20.1442 70.0103 19.6798C69.828 19.2154 69.7428 18.7185 69.76 18.22C69.7332 17.6604 69.8294 17.1017 70.0419 16.5834C70.2544 16.065 70.5781 15.5996 70.99 15.22C71.749 14.5022 72.7554 14.1047 73.8 14.11C74.4006 14.08 75.0002 14.1858 75.5542 14.4195C76.1082 14.6533 76.6024 15.0089 77 15.46C77.7907 16.3947 78.1917 17.5977 78.12 18.82ZM76 18.8C76.0295 18.1205 75.8208 17.452 75.41 16.91C75.2176 16.6726 74.9733 16.4824 74.696 16.3542C74.4186 16.2259 74.1155 16.1629 73.81 16.17C73.5518 16.1613 73.2947 16.2086 73.0565 16.3088C72.8183 16.4089 72.6045 16.5594 72.43 16.75C72.2552 16.926 72.1173 17.1353 72.0246 17.3654C71.9319 17.5955 71.8861 17.8419 71.89 18.09C71.8845 18.3558 71.9321 18.6201 72.03 18.8674C72.1279 19.1146 72.274 19.3399 72.46 19.53C72.6489 19.728 72.8775 19.8838 73.1308 19.9872C73.3842 20.0906 73.6565 20.1393 73.93 20.13C74.3705 20.1511 74.8067 20.0344 75.1777 19.796C75.5487 19.5576 75.8362 19.2094 76 18.8Z" fill="#E6332A"/>
<path d="M80.31 20.8401L81.12 14.3601H86.88V16.3601H82.88L82.53 18.7901C82.7568 18.7421 82.9881 18.7186 83.22 18.7201C83.7315 18.6948 84.2427 18.7759 84.7212 18.9584C85.1997 19.1408 85.6352 19.4206 86 19.7801C86.3687 20.1483 86.6569 20.5891 86.8463 21.0745C87.0356 21.56 87.122 22.0795 87.1 22.6001C87.1227 23.1574 87.0266 23.7131 86.818 24.2304C86.6093 24.7476 86.293 25.2146 85.89 25.6001C85.4887 25.9757 85.017 26.2681 84.5021 26.4603C83.9871 26.6526 83.4392 26.7409 82.89 26.7201C82.1987 26.7067 81.5177 26.5501 80.89 26.2601C80.2462 26.0034 79.6905 25.5658 79.29 25.0001L80.44 23.4901C80.7078 23.8822 81.0778 24.1934 81.51 24.3901C81.9419 24.6171 82.422 24.7371 82.91 24.7401C83.1758 24.7456 83.4401 24.698 83.6874 24.6001C83.9346 24.5023 84.1599 24.3561 84.35 24.1701C84.5391 23.9745 84.6863 23.7423 84.7826 23.4878C84.8789 23.2334 84.9222 22.9619 84.91 22.6901C84.9159 22.3945 84.8561 22.1013 84.7351 21.8315C84.6141 21.5618 84.4347 21.3222 84.21 21.1301C83.6734 20.7079 83.0018 20.4947 82.32 20.5301C81.6361 20.5009 80.9532 20.6062 80.31 20.8401Z" fill="#E6332A"/>
<path d="M89.3 18.3101L88.24 16.6601L91.36 14.3301H92.81V26.5501H90.81V17.1801L89.3 18.3101Z" fill="#E6332A"/>
<path d="M99.46 14.2201C100.073 14.1916 100.681 14.3323 101.219 14.6269C101.757 14.9215 102.204 15.3585 102.51 15.8901C103.249 17.2955 103.595 18.8745 103.51 20.4601C103.605 22.0561 103.259 23.6476 102.51 25.0601C102.203 25.5765 101.762 26.0005 101.234 26.2874C100.706 26.5743 100.11 26.7134 99.51 26.6901C98.892 26.7122 98.2794 26.5669 97.7372 26.2694C97.195 25.9719 96.7433 25.5333 96.43 25.0001C95.6485 23.6052 95.2808 22.0165 95.37 20.4201C95.2672 18.8267 95.6136 17.2363 96.37 15.8301C96.6911 15.3072 97.1481 14.8813 97.6923 14.5977C98.2365 14.3142 98.8475 14.1837 99.46 14.2201ZM97.51 20.4601C97.51 23.3734 98.1767 24.8301 99.51 24.8301C99.8307 24.8409 100.147 24.75 100.412 24.5704C100.678 24.3908 100.88 24.1316 100.99 23.8301C101.34 22.7532 101.489 21.621 101.43 20.4901C101.49 19.3617 101.338 18.232 100.98 17.1601C100.871 16.8494 100.668 16.5804 100.399 16.39C100.13 16.1997 99.8093 16.0974 99.48 16.0974C99.1507 16.0974 98.8296 16.1997 98.5609 16.39C98.2922 16.5804 98.0892 16.8494 97.98 17.1601C97.6119 18.2195 97.4523 19.3401 97.51 20.4601Z" fill="#E6332A"/>
<path d="M105.07 25.25C105.07 25.0814 105.105 24.9146 105.172 24.7598C105.239 24.6051 105.337 24.4656 105.46 24.35C105.591 24.2206 105.748 24.1192 105.92 24.0522C106.092 23.9851 106.276 23.9538 106.46 23.96C106.629 23.958 106.797 23.9916 106.952 24.0589C107.107 24.1261 107.246 24.2253 107.36 24.35C107.478 24.468 107.572 24.6083 107.635 24.7628C107.699 24.9174 107.731 25.083 107.73 25.25C107.737 25.4328 107.708 25.6153 107.645 25.7869C107.581 25.9585 107.484 26.1159 107.36 26.25C107.249 26.3804 107.111 26.4848 106.956 26.5557C106.8 26.6266 106.631 26.6622 106.46 26.66C106.274 26.6667 106.088 26.6336 105.916 26.5629C105.743 26.4922 105.588 26.3856 105.46 26.25C105.331 26.1182 105.23 25.9616 105.163 25.7898C105.096 25.618 105.064 25.4344 105.07 25.25Z" fill="#E6332A"/>
<path d="M110.94 25.25C110.94 25.0814 110.975 24.9146 111.042 24.7598C111.109 24.6051 111.207 24.4656 111.33 24.35C111.461 24.2206 111.618 24.1192 111.79 24.0522C111.962 23.9851 112.146 23.9538 112.33 23.96C112.499 23.958 112.667 23.9916 112.822 24.0589C112.977 24.1261 113.116 24.2253 113.23 24.35C113.35 24.4675 113.445 24.6075 113.51 24.762C113.575 24.9165 113.609 25.0823 113.61 25.25C113.621 25.6205 113.484 25.9801 113.23 26.25C113.119 26.3804 112.981 26.4848 112.826 26.5557C112.67 26.6266 112.501 26.6622 112.33 26.66C112.144 26.6667 111.958 26.6336 111.786 26.5629C111.613 26.4922 111.458 26.3856 111.33 26.25C111.201 26.1182 111.1 25.9616 111.033 25.7898C110.966 25.618 110.934 25.4344 110.94 25.25Z" fill="#E6332A"/>
<path d="M116.81 25.25C116.81 25.0814 116.845 24.9146 116.912 24.7598C116.979 24.6051 117.077 24.4656 117.2 24.35C117.331 24.2206 117.488 24.1192 117.66 24.0522C117.832 23.9851 118.016 23.9538 118.2 23.96C118.369 23.958 118.537 23.9916 118.692 24.0589C118.847 24.1261 118.986 24.2253 119.1 24.35C119.22 24.4675 119.315 24.6075 119.38 24.762C119.445 24.9165 119.479 25.0823 119.48 25.25C119.491 25.6205 119.354 25.9801 119.1 26.25C118.989 26.3804 118.851 26.4848 118.696 26.5557C118.54 26.6266 118.371 26.6622 118.2 26.66C118.014 26.6667 117.828 26.6336 117.656 26.5629C117.483 26.4922 117.328 26.3856 117.2 26.25C117.071 26.1182 116.97 25.9616 116.903 25.7898C116.836 25.618 116.804 25.4344 116.81 25.25Z" fill="#E6332A"/>
<path d="M122.68 25.25C122.68 25.0814 122.715 24.9146 122.782 24.7598C122.849 24.6051 122.947 24.4656 123.07 24.35C123.202 24.2206 123.358 24.1192 123.53 24.0522C123.702 23.9851 123.886 23.9538 124.07 23.96C124.239 23.958 124.407 23.9916 124.562 24.0589C124.717 24.1261 124.856 24.2253 124.97 24.35C125.09 24.4675 125.185 24.6075 125.25 24.762C125.315 24.9165 125.349 25.0823 125.35 25.25C125.361 25.6205 125.224 25.9801 124.97 26.25C124.859 26.3804 124.721 26.4848 124.566 26.5557C124.41 26.6266 124.241 26.6622 124.07 26.66C123.884 26.6667 123.698 26.6336 123.526 26.5629C123.353 26.4922 123.198 26.3856 123.07 26.25C122.941 26.1182 122.84 25.9616 122.773 25.7898C122.706 25.618 122.674 25.4344 122.68 25.25Z" fill="#E6332A"/>
<path d="M172.5 11.3799L181.5 20.3899L172.89 28.9999" stroke="#E6332A" stroke-width="3" stroke-miterlimit="10"/>
</g>
<defs>
<clipPath id="clip0">
<rect width="183.62" height="40.58" fill="white"/>
</clipPath>
</defs>
</svg>
