<svg width="67" height="55" viewBox="0 0 67 55" fill="none" xmlns="http://www.w3.org/2000/svg">
<g clip-path="url(#clip0)">
<path d="M33.5 43.56C51.1731 43.56 65.5 34.1446 65.5 22.53C65.5 10.9155 51.1731 1.5 33.5 1.5C15.8269 1.5 1.5 10.9155 1.5 22.53C1.5 34.1446 15.8269 43.56 33.5 43.56Z" stroke="#E6332A" stroke-width="3" stroke-miterlimit="10"/>
<path d="M1.50001 22.53V34.27C1.4978 36.035 1.88887 37.7782 2.64478 39.3731C3.40069 40.9679 4.50247 42.3743 5.87001 43.49C12.87 49.18 22.65 52.72 33.5 52.72C44.35 52.72 54.15 49.18 61.13 43.49C62.4976 42.3743 63.5993 40.9679 64.3552 39.3731C65.1112 37.7782 65.5022 36.035 65.5 34.27V22.53" stroke="#E6332A" stroke-width="3" stroke-miterlimit="10"/>
<path d="M33.5 52.4001V43.5601" stroke="#E6332A" stroke-width="3" stroke-miterlimit="10"/>
<path d="M44.17 51.5399V47.3999" stroke="#E6332A" stroke-width="3" stroke-miterlimit="10"/>
<path d="M54.83 46.93V38.99" stroke="#E6332A" stroke-width="3" stroke-miterlimit="10"/>
<path d="M22.83 50.9199V42.6499" stroke="#E6332A" stroke-width="3" stroke-miterlimit="10"/>
<path d="M12.17 47.26V38.46" stroke="#E6332A" stroke-width="3" stroke-miterlimit="10"/>
<path d="M42.3 20.25L34.35 15C34.0926 14.8478 33.7991 14.7675 33.5 14.7675C33.201 14.7675 32.9074 14.8478 32.65 15L24.7 20.25C24.4426 20.4022 24.1491 20.4825 23.85 20.4825C23.551 20.4825 23.2574 20.4022 23 20.25L21.29 19.13C21.1872 19.077 21.1009 18.9967 21.0407 18.8979C20.9805 18.7991 20.9486 18.6857 20.9486 18.57C20.9486 18.4543 20.9805 18.3408 21.0407 18.2421C21.1009 18.1433 21.1872 18.063 21.29 18.01L31.79 11.11C32.3086 10.8058 32.8989 10.6455 33.5 10.6455C34.1012 10.6455 34.6915 10.8058 35.21 11.11L45.71 18C45.7837 18.0353 45.8497 18.0848 45.9042 18.1456C45.9587 18.2065 46.0006 18.2776 46.0276 18.3547C46.0545 18.4318 46.066 18.5135 46.0612 18.5951C46.0565 18.6767 46.0357 18.7565 46 18.83C45.9419 18.9587 45.8388 19.0619 45.71 19.12L44 20.25C43.7426 20.4022 43.4491 20.4825 43.15 20.4825C42.851 20.4825 42.5574 20.4022 42.3 20.25Z" fill="#E6332A"/>
<path d="M33.5 34.4299C32.9007 34.4523 32.3074 34.3031 31.79 33.9999L21.29 27.0999C21.2163 27.0646 21.1503 27.0151 21.0958 26.9542C21.0413 26.8934 20.9994 26.8223 20.9724 26.7452C20.9455 26.6681 20.9341 26.5864 20.9388 26.5048C20.9435 26.4232 20.9643 26.3434 21 26.2699C21.0581 26.1411 21.1612 26.038 21.29 25.9799L23 24.8199C23.2574 24.6677 23.551 24.5874 23.85 24.5874C24.149 24.5874 24.4426 24.6677 24.7 24.8199L32.7 30.0299C32.9574 30.1821 33.251 30.2624 33.55 30.2624C33.849 30.2624 34.1426 30.1821 34.4 30.0299L42.35 24.8199C42.6074 24.6677 42.901 24.5874 43.2 24.5874C43.499 24.5874 43.7926 24.6677 44.05 24.8199L45.76 25.9399C45.8628 25.9929 45.9491 26.0732 46.0093 26.172C46.0695 26.2708 46.1014 26.3842 46.1014 26.4999C46.1014 26.6156 46.0695 26.729 46.0093 26.8278C45.9491 26.9266 45.8628 27.0069 45.76 27.0599L35.21 33.9999C34.6907 34.2986 34.0988 34.4474 33.5 34.4299Z" fill="#E6332A"/>
<path d="M36.06 22L34.35 20.87C34.0909 20.7227 33.798 20.6453 33.5 20.6453C33.202 20.6453 32.9091 20.7227 32.65 20.87L30.94 22C30.8372 22.053 30.7509 22.1333 30.6907 22.232C30.6305 22.3308 30.5986 22.4443 30.5986 22.56C30.5986 22.6757 30.6305 22.7891 30.6907 22.8879C30.7509 22.9867 30.8372 23.067 30.94 23.12L32.65 24.24C32.9074 24.3922 33.201 24.4725 33.5 24.4725C33.7991 24.4725 34.0926 24.3922 34.35 24.24L36.06 23.12C36.1337 23.0847 36.1997 23.0352 36.2542 22.9743C36.3087 22.9134 36.3506 22.8424 36.3776 22.7653C36.4045 22.6881 36.416 22.6064 36.4112 22.5249C36.4065 22.4433 36.3857 22.3635 36.35 22.29C36.2919 22.1612 36.1888 22.0581 36.06 22Z" fill="#E6332A"/>
<path d="M20.38 22.0001L18.67 20.8701C18.4091 20.7229 18.1146 20.6455 17.815 20.6455C17.5154 20.6455 17.2209 20.7229 16.96 20.8701L15.26 22.0001C15.112 22.0695 14.9974 22.1947 14.9412 22.3483C14.885 22.5019 14.8918 22.6714 14.96 22.8201C15.0249 22.9499 15.1302 23.0552 15.26 23.1201L17 24.2201C17.2593 24.3721 17.5544 24.4523 17.855 24.4523C18.1556 24.4523 18.4507 24.3721 18.71 24.2201L20.42 23.1001C20.5259 23.0497 20.6154 22.9704 20.678 22.8713C20.7407 22.7722 20.7739 22.6573 20.7739 22.5401C20.7739 22.4228 20.7407 22.308 20.678 22.2088C20.6154 22.1097 20.5259 22.0304 20.42 21.9801L20.38 22.0001Z" fill="#E6332A"/>
<path d="M51.74 22L50 20.85C49.7391 20.7028 49.4446 20.6255 49.145 20.6255C48.8454 20.6255 48.5509 20.7028 48.29 20.85L46.62 22C46.5467 22.0343 46.4809 22.0829 46.4265 22.1428C46.3721 22.2028 46.3302 22.273 46.3032 22.3493C46.2762 22.4256 46.2647 22.5065 46.2693 22.5874C46.2739 22.6682 46.2945 22.7473 46.33 22.82C46.3911 22.9492 46.493 23.0546 46.62 23.12L48.33 24.24C48.5893 24.3921 48.8844 24.4723 49.185 24.4723C49.4856 24.4723 49.7807 24.3921 50.04 24.24L51.74 23.12C51.8888 23.0486 52.0035 22.9216 52.0596 22.7664C52.1157 22.6111 52.1087 22.4401 52.04 22.29C51.9746 22.163 51.8692 22.0611 51.74 22Z" fill="#E6332A"/>
</g>
<defs>
<clipPath id="clip0">
<rect width="67" height="54.22" fill="white"/>
</clipPath>
</defs>
</svg>
