<svg width="64" height="64" viewBox="0 0 64 64" fill="none" xmlns="http://www.w3.org/2000/svg">
<g clip-path="url(#clip0)">
<path d="M60.25 13.7501V11.1701C60.2513 10.9644 60.2119 10.7605 60.1341 10.57C60.0563 10.3796 59.9416 10.2065 59.7966 10.0605C59.6516 9.91462 59.4792 9.79882 59.2893 9.71979C59.0994 9.64077 58.8957 9.60009 58.69 9.6001H40.33C40.1243 9.60009 39.9206 9.64077 39.7307 9.71979C39.5408 9.79882 39.3683 9.91462 39.2234 10.0605C39.0784 10.2065 38.9637 10.3796 38.8859 10.57C38.808 10.7605 38.7687 10.9644 38.77 11.1701V13.7501C38.77 14.1638 38.9343 14.5606 39.2269 14.8532C39.5195 15.1457 39.9163 15.3101 40.33 15.3101H58.69C59.1037 15.3101 59.5005 15.1457 59.7931 14.8532C60.0856 14.5606 60.25 14.1638 60.25 13.7501ZM58.37 13.4401H40.65V11.4401H58.37V13.4401Z" fill="#E6332A"/>
<path d="M45.14 50.2699C45.3815 50.2752 45.6216 50.2324 45.8464 50.1439C46.0712 50.0555 46.2762 49.9232 46.4493 49.7547C46.6224 49.5862 46.7603 49.385 46.8548 49.1627C46.9494 48.9404 46.9987 48.7015 47 48.4599V22.4599C46.9974 21.9807 46.8058 21.5218 46.4669 21.1829C46.1281 20.8441 45.6692 20.6525 45.19 20.6499H5.30998C5.06889 20.6498 4.83021 20.698 4.60796 20.7914C4.38571 20.8849 4.18438 21.0218 4.01577 21.1941C3.84716 21.3664 3.71468 21.5707 3.62611 21.795C3.53754 22.0192 3.49466 22.2589 3.49998 22.4999V48.4999C3.49998 48.9799 3.69068 49.4403 4.03012 49.7798C4.36956 50.1192 4.82994 50.3099 5.30998 50.3099L45.14 50.2699ZM5.36998 22.5599H45.07V48.3999H5.36998V22.5599Z" fill="#E6332A"/>
<path d="M53.64 38.0599H58.39C58.5987 38.0653 58.8063 38.0289 59.0008 37.953C59.1952 37.8771 59.3726 37.7632 59.5225 37.618C59.6725 37.4727 59.7919 37.299 59.8739 37.1071C59.9559 36.9151 59.9987 36.7087 60 36.4999V33.9999C59.9974 33.5853 59.8308 33.1885 59.5366 32.8962C59.2425 32.604 58.8447 32.4399 58.43 32.4399H53.64C53.2263 32.4399 52.8295 32.6043 52.5369 32.8969C52.2444 33.1894 52.08 33.5862 52.08 33.9999V36.4999C52.08 36.7048 52.1204 36.9077 52.1987 37.0969C52.2771 37.2862 52.3921 37.4582 52.5369 37.603C52.6818 37.7479 52.8537 37.8628 53.043 37.9412C53.2323 38.0196 53.4351 38.0599 53.64 38.0599ZM54 34.3099H58.12V36.1899H54V34.3099Z" fill="#E6332A"/>
<path d="M61.69 2.16463e-05H37.33C37.0253 -0.00129441 36.7234 0.0574119 36.4414 0.172789C36.1594 0.288165 35.9029 0.457953 35.6866 0.672457C35.4702 0.88696 35.2982 1.14198 35.1804 1.42295C35.0626 1.70393 35.0013 2.00535 35 2.31002V17.19H2.69C1.97829 17.19 1.29559 17.4721 0.791405 17.9744C0.287218 18.4767 0.00264094 19.1583 -4.79538e-06 19.87V24.66C0.0239479 24.8913 0.132786 25.1055 0.305478 25.2613C0.478169 25.417 0.702455 25.5032 0.934995 25.5032C1.16754 25.5032 1.39182 25.417 1.56451 25.2613C1.7372 25.1055 1.84604 24.8913 1.87 24.66V19.87C1.87263 19.6543 1.96018 19.4483 2.11367 19.2966C2.26717 19.145 2.47424 19.06 2.69 19.06H47.76C47.8664 19.06 47.9717 19.081 48.07 19.1217C48.1682 19.1624 48.2575 19.222 48.3328 19.2973C48.408 19.3725 48.4676 19.4618 48.5083 19.56C48.549 19.6583 48.57 19.7637 48.57 19.87V51.08C48.57 51.2958 48.485 51.5028 48.3334 51.6563C48.1817 51.8098 47.9757 51.8974 47.76 51.9H2.69C2.47252 51.9 2.26395 51.8136 2.11017 51.6599C1.95639 51.5061 1.87 51.2975 1.87 51.08V29C1.88355 28.8691 1.86947 28.7368 1.82865 28.6117C1.78784 28.4866 1.72121 28.3714 1.63307 28.2737C1.54493 28.1759 1.43725 28.0978 1.317 28.0443C1.19675 27.9908 1.0666 27.9632 0.934995 27.9632C0.803386 27.9632 0.673243 27.9908 0.552992 28.0443C0.43274 28.0978 0.32506 28.1759 0.236921 28.2737C0.148782 28.3714 0.0821497 28.4866 0.0413364 28.6117C0.000523102 28.7368 -0.0135612 28.8691 -4.79538e-06 29V51C-4.79538e-06 51.7135 0.283405 52.3977 0.787878 52.9021C1.29235 53.4066 1.97656 53.69 2.69 53.69H20.54V56.6H13.91C13.429 56.6027 12.9687 56.7956 12.6295 57.1366C12.2904 57.4776 12.1 57.9391 12.1 58.42V62.19C12.1 62.6701 12.2907 63.1304 12.6301 63.4699C12.9696 63.8093 13.43 64 13.91 64C38.12 64 36.63 64 36.91 64C37.19 64 36.5 64 47.8 64C48.0493 64 48.2884 63.901 48.4647 63.7247C48.641 63.5484 48.74 63.3093 48.74 63.06C48.74 62.8107 48.641 62.5716 48.4647 62.3953C48.2884 62.2191 48.0493 62.12 47.8 62.12H38.35V58.4C38.345 57.9854 38.1985 57.5848 37.9348 57.2648C37.6711 56.9447 37.306 56.7243 36.9 56.64V53.77H47.76C48.4734 53.77 49.1576 53.4866 49.6621 52.9821C50.1666 52.4777 50.45 51.7935 50.45 51.08V30.4H62.13V61.69C62.1274 61.805 62.0799 61.9143 61.9976 61.9947C61.9154 62.0751 61.805 62.1201 61.69 62.12H52.17C51.9207 62.12 51.6816 62.2191 51.5053 62.3953C51.329 62.5716 51.23 62.8107 51.23 63.06C51.23 63.3093 51.329 63.5484 51.5053 63.7247C51.6816 63.901 51.9207 64 52.17 64H61.69C62.3018 63.9974 62.8879 63.7532 63.3205 63.3205C63.7531 62.8879 63.9974 62.3019 64 61.69V2.31002C63.9974 1.69818 63.7531 1.11215 63.3205 0.679512C62.8879 0.246873 62.3018 0.00265325 61.69 2.16463e-05ZM37.33 1.87002H61.69C61.8049 1.87264 61.9143 1.92014 61.9947 2.00238C62.075 2.08461 62.12 2.19504 62.12 2.31002V5.85002H36.9V2.31002C36.9 2.19504 36.945 2.08461 37.0253 2.00238C37.1057 1.92014 37.215 1.87264 37.33 1.87002ZM36.9 7.73002H62.12V17.19H36.9V7.73002ZM50.45 22.81H58.37V24.81H50.45V22.81ZM29.91 56.6V53.77H35V56.6H29.91ZM22.41 53.77H28V56.6H22.41V53.77ZM14 58.48H36.5V62.12H14V58.48ZM50.48 28.48V26.65H58.72C59.1347 26.6474 59.5314 26.4808 59.8237 26.1867C60.116 25.8925 60.28 25.4947 60.28 25.08V22.5C60.28 22.0863 60.1156 21.6895 59.8231 21.3969C59.5305 21.1044 59.1337 20.94 58.72 20.94H50.45C50.506 20.3104 50.4621 19.6759 50.32 19.06H62.12V28.52L50.48 28.48Z" fill="#E6332A"/>
</g>
<defs>
<clipPath id="clip0">
<rect width="64" height="64" fill="white"/>
</clipPath>
</defs>
</svg>
