<svg width="66" height="66" viewBox="0 0 66 66" fill="none" xmlns="http://www.w3.org/2000/svg">
<path d="M33 65C50.6731 65 65 50.6731 65 33C65 15.3269 50.6731 1 33 1C15.3269 1 1 15.3269 1 33C1 50.6731 15.3269 65 33 65Z" stroke="#E6332A" stroke-width="2" stroke-miterlimit="10"/>
<path d="M42.53 24.2C41.2406 22.9978 39.7256 22.0632 38.0726 21.4504C36.4196 20.8376 34.6615 20.5587 32.9 20.63C31.1131 20.5622 29.3311 20.8598 27.6632 21.5046C25.9953 22.1494 24.4766 23.1278 23.2 24.38C21.5195 26.0301 20.3525 28.1313 19.84 30.43H16.58C15.718 30.43 14.8914 30.7725 14.2819 31.382C13.6724 31.9914 13.33 32.8181 13.33 33.68C13.33 34.542 13.6724 35.3687 14.2819 35.9781C14.8914 36.5876 15.718 36.93 16.58 36.93H19.81C20.2792 39.3123 21.4779 41.4896 23.24 43.16C25.8618 45.5797 29.3348 46.8632 32.9 46.73C34.6626 46.79 36.4193 46.4961 38.0665 45.8658C39.7136 45.2354 41.2177 44.2814 42.49 43.06C43.7479 41.8511 44.738 40.3915 45.396 38.7757C46.0541 37.1599 46.3655 35.4238 46.31 33.68C46.3867 31.9224 46.0894 30.1684 45.4378 28.5342C44.7862 26.9 43.7951 25.4227 42.53 24.2V24.2ZM38.27 39.2C37.5844 39.9246 36.7482 40.49 35.8204 40.8563C34.8925 41.2226 33.8957 41.3809 32.9 41.32C31.9356 41.3394 30.978 41.1542 30.0904 40.7767C29.2027 40.3993 28.4051 39.838 27.75 39.13C27.1358 38.4878 26.6383 37.7433 26.28 36.93H29.75C30.6119 36.93 31.4386 36.5876 32.0481 35.9781C32.6576 35.3687 33 34.542 33 33.68C33 32.8181 32.6576 31.9914 32.0481 31.382C31.4386 30.7725 30.6119 30.43 29.75 30.43H26.21C26.5475 29.5872 27.043 28.8167 27.67 28.16C28.3434 27.4558 29.1564 26.9 30.057 26.528C30.9576 26.1561 31.9259 25.9763 32.9 26C33.8638 25.9821 34.8211 26.1608 35.7134 26.5253C36.6058 26.8898 37.4144 27.4324 38.09 28.12C38.7955 28.8496 39.3448 29.7154 39.7041 30.6646C40.0635 31.6137 40.2254 32.6262 40.18 33.64C40.2621 35.6672 39.5805 37.6513 38.27 39.2V39.2Z" stroke="#E6332A" stroke-width="2" stroke-miterlimit="10"/>
</svg>
