<svg width="67" height="64" viewBox="0 0 67 64" fill="none" xmlns="http://www.w3.org/2000/svg">
<g clip-path="url(#clip0)">
<path fill-rule="evenodd" clip-rule="evenodd" d="M13.86 9.22C13.6739 8.34784 13.6733 7.4463 13.8583 6.5739C14.0432 5.7015 14.4096 4.87775 14.9335 4.15613C15.4575 3.4345 16.1274 2.83113 16.8997 2.38519C17.672 1.93925 18.5294 1.6607 19.4163 1.56764C20.3032 1.47458 21.1998 1.56908 22.0478 1.845C22.8959 2.12093 23.6764 2.57211 24.3387 3.16926C25.0011 3.76641 25.5304 4.49617 25.8924 5.31118C26.2544 6.12619 26.441 7.00821 26.44 7.9V22.47C28.71 22.1912 30.9932 22.0343 33.28 22C35.493 22.0354 37.7026 22.1856 39.9 22.45V7.9C39.9026 6.20343 40.5778 4.5771 41.7774 3.37744C42.9771 2.17778 44.6034 1.50264 46.3 1.5C47.2505 1.52166 48.1853 1.74719 49.0411 2.16133C49.8969 2.57547 50.6537 3.16856 51.2605 3.90049C51.8673 4.63242 52.3098 5.48613 52.5582 6.40386C52.8065 7.3216 52.8549 8.28196 52.7 9.22L49.83 25.11C59.1 28.64 65.5 34.82 65.5 41.89C65.5 52.7 51.16 61.53 33.5 61.53C15.84 61.53 1.5 52.7 1.5 41.89C1.5 34.82 7.68 28.64 17 25.11L13.86 9.22Z" stroke="#E6332A" stroke-width="3" stroke-miterlimit="10"/>
<path d="M24.59 40.24C24.59 43.07 23.07 45.46 21.11 45.46C19.15 45.46 17.64 43.07 17.64 40.24C17.64 37.41 19.16 35 21.11 35C23.06 35 24.59 37.42 24.59 40.24Z" fill="#E6332A"/>
<path d="M48.71 40.24C48.71 43.07 47.19 45.46 45.24 45.46C43.29 45.46 41.76 43.07 41.76 40.24C41.76 37.41 43.28 35 45.24 35C47.2 35 48.71 37.42 48.71 40.24Z" fill="#E6332A"/>
</g>
<defs>
<clipPath id="clip0">
<rect width="67" height="63.03" fill="white"/>
</clipPath>
</defs>
</svg>
