<svg width="311" height="136" viewBox="0 0 311 136" fill="none" xmlns="http://www.w3.org/2000/svg">
<path d="M239.161 27.0229H207.406C203.841 27.0337 200.425 28.4564 197.903 30.9812C195.38 33.5059 193.955 36.9279 193.937 40.5016C193.937 44.0867 195.355 47.5255 197.88 50.0644C200.404 52.6033 203.83 54.035 207.406 54.0459H297.248C300.815 54.0567 304.232 55.4819 306.754 58.0104C309.276 60.5389 310.697 63.9652 310.708 67.541C310.697 71.1175 309.276 74.5446 306.754 77.0744C304.233 79.6042 300.815 81.0313 297.248 81.0442H188.482C184.915 81.055 181.498 82.4803 178.976 85.0088C176.454 87.5373 175.032 90.9635 175.021 94.5393C175.03 98.1165 176.451 101.545 178.973 104.075C181.495 106.605 184.914 108.032 188.482 108.043H202.187C205.761 108.043 209.189 109.466 211.716 112C214.243 114.534 215.663 117.971 215.663 121.554C215.663 125.138 214.243 128.574 211.716 131.108C209.189 133.642 205.761 135.066 202.187 135.066H104.381C100.807 135.066 97.3788 133.642 94.8515 131.108C92.3242 128.574 90.9043 125.138 90.9043 121.554C90.9043 117.971 92.3242 114.534 94.8515 112C97.3788 109.466 100.807 108.043 104.381 108.043H122.602C126.171 108.032 129.591 106.606 132.114 104.076C134.637 101.546 136.06 98.1173 136.071 94.5393C136.058 90.9628 134.634 87.5365 132.111 85.0083C129.588 82.48 126.17 81.055 122.602 81.0442H13.4682C9.89953 81.0334 6.48008 79.6073 3.95663 77.0773C1.43318 74.5473 0.0107718 71.1189 0 67.541C0.0107819 63.9637 1.43345 60.5362 3.95713 58.0075C6.48081 55.4788 9.90028 54.0545 13.4682 54.0459H150.772C154.339 54.0329 157.757 52.6058 160.278 50.076C162.8 47.5462 164.221 44.1191 164.232 40.5426C164.226 36.9632 162.806 33.5319 160.284 30.9986C157.762 28.4652 154.342 27.0359 150.772 27.0229H104.381C100.813 27.0121 97.3952 25.5871 94.872 23.0589C92.3488 20.5306 90.9254 17.1044 90.9125 13.5278C90.9168 9.94561 92.3364 6.51098 94.8605 3.97566C97.3847 1.44033 100.808 0.0108264 104.381 0L239.145 0C242.713 0.0107999 246.133 1.43693 248.656 3.96695C251.18 6.49697 252.602 9.92531 252.613 13.5033C252.606 17.0813 251.188 20.5113 248.668 23.0444C246.147 25.5775 242.73 27.0078 239.161 27.0229Z" fill="#27272D"/>
</svg>
