<svg width="469" height="135" viewBox="0 0 469 135" fill="none" xmlns="http://www.w3.org/2000/svg">
<path d="M254.826 55.1922H110.539C107.146 55.1814 103.895 53.8252 101.495 51.4195C99.0959 49.0139 97.7431 45.7543 97.7324 42.3522C97.7431 38.9509 99.0961 35.6921 101.496 33.2878C103.895 30.8835 107.147 29.5291 110.539 29.5204H140.955C144.347 29.5096 147.598 28.1531 149.996 25.7472C152.394 23.3414 153.745 20.0817 153.753 16.6804C153.745 13.2799 152.393 10.0211 149.995 7.61653C147.597 5.21197 144.347 3.85728 140.955 3.84863H12.8066C9.41418 3.85727 6.16299 5.2117 3.76338 7.61603C1.36377 10.0204 0.0107794 13.2791 0 16.6804H0C0.0086249 20.0831 1.36066 23.344 3.76051 25.7501C6.16035 28.1562 9.41276 29.5118 12.8066 29.5204C12.4146 29.5204 11.9899 29.5204 11.6469 29.5777C14.823 29.8768 17.7744 31.3507 19.926 33.7122C22.0775 36.0737 23.2752 39.1538 23.2856 42.3522C23.2752 45.5507 22.0775 48.6307 19.926 50.9922C17.7744 53.3537 14.823 54.8276 11.6469 55.1267C12.032 55.1694 12.4192 55.1912 12.8066 55.1922C9.41418 55.2008 6.16299 56.5553 3.76338 58.9596C1.36377 61.3639 0.0107794 64.6227 0 68.024H0C0.0086249 71.4267 1.36066 74.6876 3.76051 77.0937C6.16035 79.4998 9.41276 80.8553 12.8066 80.864H254.826C258.219 80.8532 261.471 79.4969 263.87 77.0913C266.269 74.6857 267.622 71.426 267.633 68.024C267.622 64.6227 266.269 61.3639 263.869 58.9596C261.47 56.5553 258.219 55.2008 254.826 55.1922Z" fill="#27272D"/>
<path d="M587.464 27.0229H555.709C552.144 27.0337 548.729 28.4564 546.206 30.9812C543.683 33.5059 542.258 36.9279 542.241 40.5016C542.241 44.0867 543.658 47.5255 546.183 50.0644C548.708 52.6033 552.133 54.035 555.709 54.0459H645.551C649.118 54.0567 652.535 55.4819 655.057 58.0104C657.579 60.5389 659.001 63.9652 659.011 67.541C659.001 71.1175 657.579 74.5446 655.058 77.0744C652.536 79.6042 649.119 81.0313 645.551 81.0442H536.785C533.218 81.055 529.801 82.4803 527.279 85.0088C524.757 87.5373 523.335 90.9635 523.325 94.5393C523.333 98.1165 524.754 101.545 527.276 104.075C529.798 106.605 533.217 108.032 536.785 108.043H550.49C554.064 108.043 557.492 109.466 560.019 112C562.546 114.534 563.966 117.971 563.966 121.554C563.966 125.138 562.546 128.574 560.019 131.108C557.492 133.642 554.064 135.066 550.49 135.066H452.684C449.11 135.066 445.682 133.642 443.155 131.108C440.627 128.574 439.208 125.138 439.208 121.554C439.208 117.971 440.627 114.534 443.155 112C445.682 109.466 449.11 108.043 452.684 108.043H470.906C474.474 108.032 477.894 106.606 480.417 104.076C482.941 101.546 484.363 98.1173 484.374 94.5393C484.361 90.9628 482.938 87.5365 480.414 85.0083C477.891 82.48 474.473 81.055 470.906 81.0442H361.771C358.203 81.0334 354.783 79.6073 352.26 77.0773C349.736 74.5473 348.314 71.1189 348.303 67.541C348.314 63.9637 349.737 60.5362 352.26 58.0075C354.784 55.4788 358.204 54.0545 361.771 54.0459H499.075C502.643 54.0329 506.06 52.6058 508.582 50.076C511.103 47.5462 512.525 44.1191 512.535 40.5426C512.529 36.9632 511.11 33.5319 508.587 30.9986C506.065 28.4652 502.645 27.0359 499.075 27.0229H452.684C449.117 27.0121 445.698 25.5871 443.175 23.0589C440.652 20.5306 439.229 17.1044 439.216 13.5278C439.22 9.94561 440.64 6.51098 443.164 3.97566C445.688 1.44033 449.111 0.0108264 452.684 0L587.448 0C591.016 0.0107999 594.436 1.43693 596.959 3.96695C599.483 6.49697 600.905 9.92531 600.916 13.5033C600.91 17.0813 599.491 20.5113 596.971 23.0444C594.45 25.5775 591.033 27.0078 587.464 27.0229Z" fill="#27272D"/>
<path d="M200.275 3.84863H180.853C173.78 3.84863 168.046 9.59729 168.046 16.6886V16.6968C168.046 23.7881 173.78 29.5368 180.853 29.5368H200.275C207.348 29.5368 213.082 23.7881 213.082 16.6968V16.6886C213.082 9.59729 207.348 3.84863 200.275 3.84863Z" fill="#27272D"/>
</svg>
