<svg width="177" height="135" viewBox="0 0 177 135" fill="none" xmlns="http://www.w3.org/2000/svg">
<path d="M163.458 0.057373H125.071C117.588 0.057373 111.521 6.13783 111.521 13.6384C111.521 21.1391 117.588 27.2195 125.071 27.2195H163.458C170.942 27.2195 177.008 21.1391 177.008 13.6384C177.008 6.13783 170.942 0.057373 163.458 0.057373Z" fill="#27272D"/>
<path d="M72.4641 27.0229H40.7089C37.1444 27.0337 33.7287 28.4564 31.2059 30.9812C28.6832 33.5059 27.2579 36.9279 27.2407 40.5016C27.2406 44.0867 28.6583 47.5255 31.1829 50.0644C33.7075 52.6033 37.1331 54.035 40.7089 54.0459H130.551C134.118 54.0567 137.535 55.4819 140.057 58.0104C142.579 60.5389 144.001 63.9652 144.011 67.541C144.001 71.1175 142.579 74.5446 140.058 77.0744C137.536 79.6042 134.119 81.0313 130.551 81.0442H21.7847C18.2182 81.055 14.8008 82.4803 12.2789 85.0088C9.75702 87.5373 8.33546 90.9635 8.32469 94.5393C8.3333 98.1165 9.75394 101.545 12.2761 104.075C14.7982 106.605 18.2168 108.032 21.7847 108.043H35.4898C39.064 108.043 42.4917 109.466 45.019 112C47.5464 114.534 48.9662 117.971 48.9662 121.554C48.9662 125.138 47.5464 128.574 45.019 131.108C42.4917 133.642 39.064 135.066 35.4898 135.066H-62.3161C-65.8902 135.066 -69.318 133.642 -71.8453 131.108C-74.3726 128.574 -75.7924 125.138 -75.7924 121.554C-75.7924 117.971 -74.3726 114.534 -71.8453 112C-69.318 109.466 -65.8902 108.043 -62.3161 108.043H-44.0944C-40.5257 108.032 -37.1062 106.606 -34.5828 104.076C-32.0593 101.546 -30.6369 98.1173 -30.6261 94.5393C-30.6391 90.9628 -32.0625 87.5365 -34.5857 85.0083C-37.1089 82.48 -40.5271 81.055 -44.0944 81.0442H-153.229C-156.797 81.0334 -160.217 79.6073 -162.74 77.0773C-165.264 74.5473 -166.686 71.1189 -166.697 67.541C-166.686 63.9637 -165.263 60.5362 -162.74 58.0075C-160.216 55.4788 -156.796 54.0545 -153.229 54.0459H-15.9246C-12.3574 54.0329 -8.94003 52.6058 -6.41835 50.076C-3.89667 47.5462 -2.47531 44.1191 -2.46455 40.5426C-2.47101 36.9632 -3.89041 33.5319 -6.41257 30.9986C-8.93472 28.4652 -12.3546 27.0359 -15.9246 27.0229H-62.3161C-65.8833 27.0121 -69.3015 25.5871 -71.8247 23.0589C-74.348 20.5306 -75.7713 17.1044 -75.7843 13.5278C-75.78 9.94561 -74.3604 6.51098 -71.8363 3.97566C-69.3121 1.44033 -65.889 0.0108264 -62.3161 0L72.4478 0C76.0165 0.0107999 79.4359 1.43693 81.9594 3.96695C84.4828 6.49697 85.9052 9.92531 85.916 13.5033C85.9095 17.0813 84.4913 20.5113 81.9709 23.0444C79.4505 25.5775 76.0328 27.0078 72.4641 27.0229Z" fill="#27272D"/>
</svg>
