<svg width="36" height="64" viewBox="0 0 36 64" fill="none" xmlns="http://www.w3.org/2000/svg">
<g clip-path="url(#clip0)">
<path d="M29.94 0H5.16C3.79148 0 2.47902 0.543641 1.51133 1.51133C0.543641 2.47902 0 3.79148 0 5.16L0 58.84C0 60.2085 0.543641 61.521 1.51133 62.4887C2.47902 63.4564 3.79148 64 5.16 64H29.94C31.3077 63.9974 32.6186 63.4529 33.5858 62.4858C34.5529 61.5186 35.0974 60.2077 35.1 58.84V5.16C35.0974 3.79229 34.5529 2.48136 33.5858 1.51425C32.6186 0.547133 31.3077 0.00264292 29.94 0V0ZM24.55 2.06L23.93 5.16H11.17L10.55 2.06H24.55ZM33 58.84C32.9974 59.6596 32.6713 60.4451 32.0927 61.0256C31.514 61.6061 30.7296 61.9347 29.91 61.94H5.16C4.33945 61.9348 3.55399 61.6065 2.97376 61.0262C2.39353 60.446 2.06524 59.6606 2.06 58.84V5.16C2.06524 4.33945 2.39353 3.55399 2.97376 2.97376C3.55399 2.39353 4.33945 2.06524 5.16 2.06H8.44L9.31 6.4C9.35048 6.63479 9.47346 6.84742 9.65679 6.99959C9.84013 7.15175 10.0718 7.23346 10.31 7.23H24.77C25.0082 7.23346 25.2399 7.15175 25.4232 6.99959C25.6065 6.84742 25.7295 6.63479 25.77 6.4L26.63 2.06H29.92C30.7379 2.06789 31.5197 2.39765 32.0962 2.97788C32.6727 3.55811 32.9974 4.34208 33 5.16V58.84Z" fill="#E6332A"/>
<path d="M11.35 57.8101H5.16C4.88683 57.8101 4.62485 57.9186 4.43168 58.1117C4.23852 58.3049 4.13 58.5669 4.13 58.8401C4.13 59.1132 4.23852 59.3752 4.43168 59.5684C4.62485 59.7615 4.88683 59.8701 5.16 59.8701H11.35C11.6232 59.8701 11.8852 59.7615 12.0783 59.5684C12.2715 59.3752 12.38 59.1132 12.38 58.8401C12.38 58.5669 12.2715 58.3049 12.0783 58.1117C11.8852 57.9186 11.6232 57.8101 11.35 57.8101Z" fill="#E6332A"/>
<path d="M15.48 57.8101H14.48C14.2068 57.8101 13.9449 57.9186 13.7517 58.1117C13.5585 58.3049 13.45 58.5669 13.45 58.8401C13.45 59.1132 13.5585 59.3752 13.7517 59.5684C13.9449 59.7615 14.2068 59.8701 14.48 59.8701H15.48C15.7532 59.8701 16.0152 59.7615 16.2083 59.5684C16.4015 59.3752 16.51 59.1132 16.51 58.8401C16.51 58.5669 16.4015 58.3049 16.2083 58.1117C16.0152 57.9186 15.7532 57.8101 15.48 57.8101Z" fill="#E6332A"/>
</g>
<defs>
<clipPath id="clip0">
<rect width="35.1" height="64" fill="white"/>
</clipPath>
</defs>
</svg>
