<svg width="64" height="64" viewBox="0 0 64 64" fill="none" xmlns="http://www.w3.org/2000/svg">
<g clip-path="url(#clip0)">
<path d="M61.87 31.1299V15.9999C61.87 15.4391 61.7596 14.8839 61.545 14.3658C61.3304 13.8478 61.0159 13.3771 60.6193 12.9805C60.2228 12.584 59.7521 12.2695 59.2341 12.0549C58.716 11.8403 58.1607 11.7299 57.6 11.7299H54L43.32 0.999894C42.6477 0.354526 41.7519 -0.00585938 40.82 -0.00585938C39.8881 -0.00585938 38.9923 0.354526 38.32 0.999894L37.58 1.73989C37.1811 1.20024 36.6612 0.761684 36.062 0.459486C35.4628 0.157288 34.8011 -0.000126311 34.13 -0.000105907H4.27C3.13753 -0.000105907 2.05143 0.449768 1.25065 1.25055C0.449874 2.05133 0 3.13742 0 4.26989L0 59.7299C0 60.8624 0.449874 61.9485 1.25065 62.7492C2.05143 63.55 3.13753 63.9999 4.27 63.9999H34.13C35.2625 63.9999 36.3486 63.55 37.1493 62.7492C37.9501 61.9485 38.4 60.8624 38.4 59.7299V54.3999H57.6C58.7325 54.3999 59.8186 53.95 60.6193 53.1492C61.4201 52.3485 61.87 51.2624 61.87 50.1299V45.6699C62.4905 45.4497 63.0281 45.0435 63.4093 44.5066C63.7905 43.9697 63.9967 43.3283 64 42.6699V34.1299C63.9967 33.4715 63.7905 32.8301 63.4093 32.2932C63.0281 31.7563 62.4905 31.3501 61.87 31.1299ZM59.73 15.9999V20.8599C59.0856 20.4761 58.35 20.2724 57.6 20.2699H53.43L55.49 18.2099C56.0613 17.6555 56.4239 16.9212 56.5168 16.1306C56.6097 15.34 56.4272 14.5416 56 13.8699H57.6C58.1649 13.8699 58.7067 14.0943 59.1061 14.4938C59.5056 14.8932 59.73 15.435 59.73 15.9999ZM29.07 20.2699L44.3 4.99989L46.07 6.77989L32.63 20.2699H29.07ZM47.58 8.32989L54 14.7399C54.1395 14.8664 54.251 15.0208 54.3274 15.193C54.4037 15.3652 54.4431 15.5515 54.4431 15.7399C54.4431 15.9283 54.4037 16.1146 54.3274 16.2868C54.251 16.459 54.1395 16.6133 54 16.7399L50.43 20.3099H35.64L47.58 8.32989ZM39.83 2.54989C39.9604 2.41685 40.1159 2.31116 40.2877 2.23901C40.4594 2.16686 40.6437 2.12969 40.83 2.12969C41.0163 2.12969 41.2006 2.16686 41.3723 2.23901C41.5441 2.31116 41.6996 2.41685 41.83 2.54989L42.83 3.54989L26.05 20.2699H22.11L39.83 2.54989ZM19.11 20.2399C18.3413 20.2049 17.6092 19.9016 17.041 19.3827C16.4728 18.8639 16.1045 18.1622 16 17.3999C16 17.2899 16 17.1699 16 17.0699C16 16.2212 16.3371 15.4073 16.9373 14.8072C17.5374 14.207 18.3513 13.8699 19.2 13.8699H25.49L19.11 20.2399ZM27.4 2.12989L26 3.58989C25.7996 3.80297 25.5579 3.97311 25.2898 4.09C25.0216 4.20689 24.7325 4.26809 24.44 4.26989H13.92C13.6275 4.26809 13.3384 4.20689 13.0702 4.09C12.8021 3.97311 12.5604 3.80297 12.36 3.58989L11 2.12989H27.4ZM34.13 61.8699H4.27C3.70244 61.8699 3.15812 61.6444 2.75679 61.2431C2.35546 60.8418 2.13 60.2975 2.13 59.7299V58.0699C2.77768 58.4557 3.51614 58.6628 4.27 58.6699H34.13C34.8839 58.6628 35.6223 58.4557 36.27 58.0699V59.7299C36.27 60.2975 36.0445 60.8418 35.6432 61.2431C35.2419 61.6444 34.6976 61.8699 34.13 61.8699ZM34.13 56.5299H4.27C3.98944 56.5312 3.71139 56.4771 3.45181 56.3706C3.19223 56.2642 2.95624 56.1075 2.75739 55.9096C2.55854 55.7117 2.40076 55.4764 2.29309 55.2173C2.18542 54.9582 2.13 54.6805 2.13 54.3999V4.26989C2.13 3.70233 2.35546 3.15801 2.75679 2.75669C3.15812 2.35536 3.70244 2.12989 4.27 2.12989H8.07L10.81 5.04989C11.208 5.47628 11.6895 5.81619 12.2246 6.04844C12.7596 6.28069 13.3367 6.40033 13.92 6.39989H24.48C25.0633 6.40033 25.6404 6.28069 26.1754 6.04844C26.7105 5.81619 27.192 5.47628 27.59 5.04989L30.33 2.12989H34.13C34.5199 2.14187 34.8993 2.25871 35.2284 2.46813C35.5575 2.67754 35.824 2.97178 36 3.31989L27.59 11.7299H19.2C17.7855 11.7325 16.4298 12.2963 15.4305 13.2975C14.4312 14.2986 13.87 15.6554 13.87 17.0699V49.0699C13.87 50.4835 14.4316 51.8392 15.4311 52.8388C16.4307 53.8383 17.7864 54.3999 19.2 54.3999H36.27C36.27 54.6805 36.2146 54.9582 36.1069 55.2173C35.9992 55.4764 35.8415 55.7117 35.6426 55.9096C35.4438 56.1075 35.2078 56.2642 34.9482 56.3706C34.6886 56.4771 34.4106 56.5312 34.13 56.5299ZM57.6 52.2699H19.2C18.7798 52.2699 18.3637 52.1871 17.9754 52.0263C17.5872 51.8655 17.2344 51.6298 16.9373 51.3326C16.6401 51.0355 16.4044 50.6827 16.2436 50.2945C16.0828 49.9062 16 49.4901 16 49.0699V21.2399C16.9698 21.9853 18.1569 22.3927 19.38 22.3999H57.6C58.1649 22.3999 58.7067 22.6243 59.1061 23.0238C59.5056 23.4232 59.73 23.965 59.73 24.5299V30.9299H54.4C52.4188 30.9299 50.5188 31.7169 49.1179 33.1178C47.717 34.5187 46.93 36.4187 46.93 38.3999C46.93 40.3811 47.717 42.2811 49.1179 43.682C50.5188 45.0829 52.4188 45.8699 54.4 45.8699H59.73V50.1299C59.7313 50.4104 59.6772 50.6885 59.5707 50.9481C59.4643 51.2077 59.3076 51.4436 59.1097 51.6425C58.9118 51.8413 58.6765 51.9991 58.4174 52.1068C58.1584 52.2145 57.8806 52.2699 57.6 52.2699ZM61.87 42.6699C61.87 42.8099 61.8423 42.9486 61.7884 43.0779C61.7345 43.2071 61.6555 43.3244 61.556 43.423C61.4565 43.5215 61.3385 43.5994 61.2087 43.6521C61.079 43.7048 60.94 43.7312 60.8 43.7299H54.4C52.9864 43.7299 51.6307 43.1683 50.6311 42.1688C49.6316 41.1692 49.07 39.8135 49.07 38.3999C49.07 36.9863 49.6316 35.6306 50.6311 34.631C51.6307 33.6314 52.9864 33.0699 54.4 33.0699H60.8C60.94 33.0686 61.079 33.095 61.2087 33.1477C61.3385 33.2004 61.4565 33.2782 61.556 33.3768C61.6555 33.4754 61.7345 33.5927 61.7884 33.7219C61.8423 33.8512 61.87 33.9898 61.87 34.1299V42.6699Z" fill="#E6332A"/>
<path d="M54.4 35.2C53.7671 35.2 53.1484 35.3876 52.6222 35.7392C52.096 36.0909 51.6858 36.5906 51.4436 37.1754C51.2014 37.7601 51.138 38.4035 51.2615 39.0242C51.385 39.645 51.6897 40.2152 52.1373 40.6627C52.5848 41.1102 53.155 41.415 53.7757 41.5385C54.3965 41.6619 55.0399 41.5986 55.6246 41.3564C56.2093 41.1142 56.7091 40.704 57.0607 40.1778C57.4123 39.6515 57.6 39.0329 57.6 38.4C57.6 37.9797 57.5172 37.5636 57.3564 37.1754C57.1956 36.7871 56.9599 36.4344 56.6628 36.1372C56.3656 35.8401 56.0128 35.6043 55.6246 35.4435C55.2364 35.2827 54.8202 35.2 54.4 35.2ZM54.4 39.47C54.1884 39.47 53.9815 39.4072 53.8056 39.2896C53.6296 39.1721 53.4924 39.0049 53.4115 38.8094C53.3305 38.6139 53.3093 38.3988 53.3506 38.1912C53.3919 37.9836 53.4938 37.793 53.6434 37.6433C53.7931 37.4937 53.9837 37.3918 54.1913 37.3505C54.3988 37.3092 54.614 37.3304 54.8095 37.4114C55.005 37.4924 55.1721 37.6295 55.2897 37.8055C55.4073 37.9814 55.47 38.1883 55.47 38.4C55.47 38.6837 55.3573 38.9559 55.1566 39.1566C54.956 39.3572 54.6838 39.47 54.4 39.47Z" fill="#E6332A"/>
</g>
<defs>
<clipPath id="clip0">
<rect width="64" height="64" fill="white"/>
</clipPath>
</defs>
</svg>
