<svg width="315" height="146" viewBox="0 0 315 146" fill="none" xmlns="http://www.w3.org/2000/svg">
<path d="M169.51 145.3H278.51C283.846 145.316 289.12 144.157 293.958 141.905C298.795 139.652 303.077 136.361 306.498 132.267C309.92 128.172 312.398 123.374 313.756 118.214C315.113 113.053 315.318 107.657 314.354 102.409C313.39 97.1604 311.282 92.1888 308.179 87.8473C305.077 83.5058 301.056 79.9011 296.403 77.2894C291.75 74.6776 286.578 73.123 281.256 72.736C275.934 72.3489 270.592 73.139 265.61 75.0501C264.101 65.7871 260.46 57.0017 254.973 49.3871C249.487 41.7725 242.306 35.5373 233.997 31.1734C225.688 26.8095 216.479 24.4364 207.096 24.2415C197.713 24.0466 188.413 26.0351 179.93 30.0501C170.931 17.6069 158.22 8.3358 143.623 3.56814C129.025 -1.19952 113.292 -1.21841 98.6834 3.51419C84.0745 8.24679 71.3413 17.4874 62.3124 29.9089C53.2835 42.3304 48.4234 57.2938 48.43 72.6501C48.43 73.3601 48.43 74.0701 48.4901 74.7801C43.5051 73.0069 38.1929 72.3444 32.9252 72.8392C27.6575 73.334 22.5615 74.974 17.994 77.6445C13.4265 80.315 9.49772 83.9514 6.48276 88.2993C3.46779 92.6471 1.43943 97.6013 0.539654 102.815C-0.360126 108.029 -0.109591 113.377 1.27373 118.483C2.65704 123.59 5.13971 128.333 8.54798 132.38C11.9563 136.427 16.2078 139.68 21.005 141.912C25.8022 144.144 31.0291 145.3 36.32 145.3H169.51Z" fill="url(#paint0_linear)"/>
<defs>
<linearGradient id="paint0_linear" x1="2.24004" y1="-266.78" x2="270.83" y2="383.64" gradientUnits="userSpaceOnUse">
<stop stop-color="#15FFFB"/>
<stop offset="0.45" stop-color="#F9B233"/>
<stop offset="0.48" stop-color="#F7A732"/>
<stop offset="0.65" stop-color="#F0752F"/>
<stop offset="0.8" stop-color="#EB512C"/>
<stop offset="0.92" stop-color="#E73B2B"/>
<stop offset="1" stop-color="#E6332A"/>
</linearGradient>
</defs>
</svg>
