<svg width="272" height="104" viewBox="0 0 272 104" fill="none" xmlns="http://www.w3.org/2000/svg">
<path d="M0.000108963 83.9199C0.000108963 89.0572 2.04087 93.984 5.67345 97.6166C9.30603 101.249 14.2329 103.29 19.3701 103.29H251.76C256.488 103.289 261.052 101.559 264.591 98.4246C268.13 95.2907 270.401 90.9699 270.974 86.2773C271.547 81.5846 270.384 76.8444 267.703 72.9506C265.022 69.0568 261.008 66.2786 256.42 65.1399C258.184 58.5374 258.619 51.6505 257.701 44.8785C256.783 38.1064 254.53 31.584 251.072 25.6892C247.615 19.7944 243.022 14.6445 237.559 10.538C232.096 6.4315 225.873 3.45011 219.25 1.76664C212.626 0.0831743 205.735 -0.268888 198.974 0.730864C192.214 1.73062 185.719 4.06229 179.866 7.59074C174.014 11.1192 168.92 15.7742 164.88 21.286C160.839 26.7978 157.933 33.0567 156.33 39.6999C149.088 37.8921 141.444 38.6499 134.698 41.8443C127.951 45.0386 122.521 50.4721 119.33 57.2199C114.78 53.6067 109.14 51.64 103.33 51.6399C102.59 51.6399 101.87 51.6399 101.15 51.7499C98.1305 43.1131 92.1508 35.8242 84.2706 31.1749C76.3905 26.5256 67.1188 24.8163 58.0988 26.3497C49.0788 27.8832 40.8929 32.5605 34.9919 39.5527C29.0909 46.5449 25.8559 55.4005 25.8601 64.5499C25.8601 64.9299 25.8601 65.3099 25.8601 65.6899C22.9393 64.6367 19.8076 64.3034 16.7305 64.7181C13.6535 65.1329 10.7218 66.2835 8.18407 68.0725C5.64636 69.8614 3.57746 72.2359 2.15278 74.9947C0.728108 77.7534 -0.0103206 80.815 0.000108963 83.9199Z" fill="url(#paint0_linear)"/>
<defs>
<linearGradient id="paint0_linear" x1="-13.7599" y1="-270.18" x2="222.47" y2="283.16" gradientUnits="userSpaceOnUse">
<stop stop-color="#15FFFB"/>
<stop offset="0.45" stop-color="#F9B233"/>
<stop offset="0.48" stop-color="#F7A732"/>
<stop offset="0.65" stop-color="#F0752F"/>
<stop offset="0.8" stop-color="#EB512C"/>
<stop offset="0.92" stop-color="#E73B2B"/>
<stop offset="1" stop-color="#E6332A"/>
</linearGradient>
</defs>
</svg>
