<svg width="107" height="54" viewBox="0 0 107 54" fill="none" xmlns="http://www.w3.org/2000/svg">
<g clip-path="url(#clip0)">
<path d="M92.9401 53.11H15.9401C13.0799 53.1123 10.2717 52.3449 7.81011 50.8884C5.34852 49.4319 3.32419 47.3398 1.9494 44.8317C0.574605 42.3235 -0.0999914 39.4916 -0.00364806 36.633C0.0926953 33.7744 0.956429 30.9944 2.49697 28.5845C4.03752 26.1746 6.19812 24.2236 8.75219 22.9362C11.3063 21.6487 14.1597 21.0721 17.0133 21.267C19.8669 21.4619 22.6154 22.421 24.9708 24.0437C27.3261 25.6664 29.2014 27.893 30.4001 30.49C32.246 28.6212 34.6061 27.3436 37.1801 26.82V26.56C37.1116 23.0293 37.7478 19.5205 39.0515 16.2387C40.3553 12.9569 42.3004 9.96805 44.773 7.44696C47.2456 4.92586 50.1962 2.92315 53.4521 1.55597C56.708 0.188801 60.2038 -0.515381 63.7351 -0.515381C67.2664 -0.515381 70.7622 0.188801 74.0181 1.55597C77.2739 2.92315 80.2245 4.92586 82.6972 7.44696C85.1698 9.96805 87.1149 12.9569 88.4186 16.2387C89.7224 19.5205 90.3586 23.0293 90.2901 26.56C90.2901 26.64 90.2901 26.73 90.2901 26.82C91.1662 26.6469 92.0571 26.5598 92.9501 26.56C94.724 26.5113 96.4898 26.8186 98.1429 27.4638C99.7961 28.1091 101.303 29.0791 102.575 30.3166C103.847 31.5541 104.858 33.034 105.548 34.6689C106.239 36.3037 106.594 38.0603 106.594 39.835C106.594 41.6096 106.239 43.3662 105.548 45.001C104.858 46.6359 103.847 48.1158 102.575 49.3533C101.303 50.5908 99.7961 51.5608 98.1429 52.2061C96.4898 52.8513 94.724 53.1587 92.9501 53.11H92.9401Z" fill="url(#paint0_linear)"/>
</g>
<defs>
<linearGradient id="paint0_linear" x1="203.36" y1="207.2" x2="-57.5299" y2="-85.25" gradientUnits="userSpaceOnUse">
<stop stop-color="#15FFFB"/>
<stop offset="0.45" stop-color="#F9B233"/>
<stop offset="0.48" stop-color="#F7A732"/>
<stop offset="0.65" stop-color="#F0752F"/>
<stop offset="0.8" stop-color="#EB512C"/>
<stop offset="0.92" stop-color="#E73B2B"/>
<stop offset="1" stop-color="#E6332A"/>
</linearGradient>
<clipPath id="clip0">
<rect width="106.22" height="53.11" fill="white"/>
</clipPath>
</defs>
</svg>
