<svg width="556" height="491" viewBox="0 0 556 491" fill="none" xmlns="http://www.w3.org/2000/svg">
<path d="M0 394C0 394 36 371.12 92.3 337.09L91.6 284.31L119.76 320.6C142.56 306.98 167.76 292.11 194.76 276.53L159.46 210.34L223.74 259.87C235.24 253.3 246.9 246.68 258.82 239.99L226.82 198.68L284.6 225.68C356.91 185.56 434.6 144.89 506.64 112C422.92 170.79 324.64 289.07 428.53 491.36C428.53 491.36 435.53 466.84 447.13 429.23L425.83 405.93L452.83 410.93C457.61 395.78 462.97 379.1 468.83 361.44L426.74 345.9L475.15 342.47C477.683 334.963 480.273 327.353 482.92 319.64L452.18 313.93L488.69 303C512.41 235.43 540.62 160.43 568.47 107.4C623.81 28.0001 648.08 -4.79994 438.07 0.560055C276.79 3.84005 80.9 81.05 0 394Z" fill="#18181C"/>
</svg>
