<svg width="455" height="276" viewBox="0 0 455 276" fill="none" xmlns="http://www.w3.org/2000/svg">
<path d="M-0.00013304 224C-0.00144642 230.787 1.33433 237.509 3.9309 243.78C6.52748 250.051 10.334 255.75 15.1331 260.55C19.9321 265.35 25.6297 269.157 31.9005 271.755C38.1712 274.353 44.8923 275.69 51.6799 275.69H671.86C684.476 275.69 696.656 271.074 706.102 262.711C715.549 254.349 721.609 242.819 723.139 230.296C724.669 217.773 721.564 205.123 714.409 194.732C707.255 184.341 696.545 176.928 684.3 173.89C689.046 156.257 690.24 137.858 687.813 119.759C685.387 101.661 679.388 84.2261 670.165 68.4665C660.942 52.7069 648.679 38.9373 634.089 27.9578C619.498 16.9784 602.871 9.00802 585.174 4.50982C567.477 0.0116258 549.062 -0.92469 531 1.75528C512.937 4.43525 495.588 10.6781 479.959 20.121C464.33 29.5639 450.734 42.0186 439.96 56.7615C429.186 71.5043 421.45 88.2413 417.2 106C397.855 101.146 377.424 103.154 359.394 111.681C341.364 120.208 326.851 134.727 318.33 152.76C306.195 143.108 291.145 137.859 275.64 137.87C273.64 137.87 271.75 138 269.83 138.16C261.768 115.121 245.813 95.6782 224.791 83.2753C203.768 70.8724 179.034 66.3096 154.97 70.395C130.906 74.4803 109.064 86.9503 93.3121 105.596C77.5607 124.242 68.9163 147.861 68.9099 172.27C68.9099 173.27 68.9099 174.27 68.9899 175.27C61.1899 172.471 52.8303 171.592 44.6188 172.709C36.4074 173.826 28.5861 176.905 21.8173 181.686C15.0484 186.467 9.53152 192.809 5.73372 200.175C1.93592 207.541 -0.0308894 215.713 -0.00013304 224Z" fill="white"/>
</svg>
