<svg width="363" height="291" viewBox="0 0 363 291" fill="none" xmlns="http://www.w3.org/2000/svg">
<path d="M-146.25 291H275.75C291.41 291 306.782 286.787 320.254 278.803C333.727 270.82 344.803 259.359 352.323 245.623C359.844 231.886 363.531 216.38 362.998 200.729C362.465 185.078 357.732 169.858 349.294 156.665C340.857 143.472 329.026 132.792 315.042 125.743C301.058 118.695 285.435 115.537 269.811 116.602C254.188 117.667 239.138 122.915 226.239 131.796C213.341 140.677 203.069 152.864 196.5 167.08C186.357 156.836 173.392 149.845 159.26 147C159.26 146.51 159.26 146 159.26 145.55C159.26 106.961 143.931 69.9526 116.644 42.666C89.3575 15.3795 52.349 0.0500488 13.76 0.0500488C-24.829 0.0500488 -61.8375 15.3795 -89.1241 42.666C-116.411 69.9526 -131.74 106.961 -131.74 145.55C-131.74 146.04 -131.74 146.55 -131.74 147.01C-141.724 144.93 -152.033 144.972 -161.999 147.134C-171.966 149.295 -181.366 153.527 -189.591 159.556C-197.817 165.584 -204.683 173.274 -209.744 182.128C-214.806 190.981 -217.95 200.799 -218.972 210.946C-219.995 221.092 -218.873 231.34 -215.68 241.025C-212.486 250.71 -207.292 259.616 -200.435 267.164C-193.578 274.713 -185.211 280.736 -175.876 284.842C-166.542 288.948 -156.448 291.046 -146.25 291Z" fill="white"/>
</svg>
