<svg width="130" height="130" viewBox="0 0 130 130" fill="none" xmlns="http://www.w3.org/2000/svg">
<path d="M65.0004 114.518C92.3485 114.518 114.519 92.3482 114.519 65C114.519 37.6519 92.3485 15.4819 65.0004 15.4819C37.6523 15.4819 15.4823 37.6519 15.4823 65C15.4823 92.3482 37.6523 114.518 65.0004 114.518Z" fill="url(#paint0_linear)"/>
<path d="M65.0003 101.093C84.934 101.093 101.093 84.934 101.093 65.0003C101.093 45.0667 84.934 28.9072 65.0003 28.9072C45.0667 28.9072 28.9072 45.0667 28.9072 65.0003C28.9072 84.934 45.0667 101.093 65.0003 101.093Z" fill="url(#paint1_linear)"/>
<path d="M44.0717 66.049C44.0717 60.2846 45.9869 55.4852 49.8172 51.6507C53.6476 47.8161 58.6521 45.8821 64.8309 45.8486C70.9259 45.8486 75.8907 47.6905 79.7253 51.3744C83.6309 55.054 85.5838 59.9455 85.5838 66.049C85.5838 71.9096 83.6121 76.7446 79.6687 80.554C75.7254 84.3634 70.7794 86.2598 64.8309 86.243C58.7651 86.243 53.7794 84.4011 49.8737 80.7173C45.968 77.0335 44.034 72.144 44.0717 66.049ZM53.5596 66.049C53.5245 67.6003 53.7972 69.1432 54.3619 70.5885C54.9267 72.0339 55.7723 73.3529 56.85 74.4694C57.8632 75.5698 59.0987 76.4423 60.4746 77.029C61.8505 77.6158 63.3354 77.9034 64.8309 77.8728C68.3975 77.8728 71.1666 76.776 73.1383 74.5825C75.1483 72.2031 76.2023 69.1618 76.0959 66.049C76.0959 62.5117 75.0179 59.6651 72.862 57.5092C71.8185 56.4421 70.5677 55.5998 69.1866 55.0339C67.8054 54.4681 66.3232 54.1907 64.8309 54.2189C63.3295 54.1756 61.8357 54.4464 60.4451 55.0141C59.0545 55.5818 57.7979 56.4338 56.7558 57.5155C54.6418 59.7132 53.5827 62.5577 53.5785 66.049H53.5596Z" fill="white"/>
<path d="M59.9769 61.0317H39.5882C36.8139 61.0317 34.5648 63.2808 34.5648 66.0551C34.5648 68.8295 36.8139 71.0785 39.5882 71.0785H59.9769C62.7513 71.0785 65.0003 68.8295 65.0003 66.0551C65.0003 63.2808 62.7513 61.0317 59.9769 61.0317Z" fill="white"/>
<path d="M98.3808 118.436C90.1066 123.603 80.7456 126.778 71.0353 127.711C61.325 128.644 51.5308 127.309 42.4243 123.811C33.3179 120.314 25.148 114.75 18.5584 107.557C11.9689 100.364 7.13969 91.7391 4.45137 82.3618C1.76306 72.9846 1.28907 63.1112 3.06675 53.5195C4.84443 43.9279 8.82522 34.8801 14.6954 27.089C20.5657 19.298 28.1649 12.9766 36.8945 8.62292C45.6241 4.26924 55.2454 2.00221 65.0004 2.00049" stroke="url(#paint2_linear)" stroke-width="4" stroke-miterlimit="10" stroke-linecap="round"/>
<path d="M103.951 15.4819C111.452 21.3719 117.515 28.8907 121.681 37.4697C125.848 46.0486 128.009 55.4629 128 65.0001" stroke="url(#paint3_linear)" stroke-width="4" stroke-miterlimit="10" stroke-linecap="round"/>
<defs>
<linearGradient id="paint0_linear" x1="65.0004" y1="109.834" x2="65.0004" y2="15.3626" gradientUnits="userSpaceOnUse">
<stop stop-color="#EE2216"/>
<stop offset="1" stop-color="#F9B233"/>
</linearGradient>
<linearGradient id="paint1_linear" x1="65.0003" y1="21.2277" x2="65.0003" y2="92.5097" gradientUnits="userSpaceOnUse">
<stop stop-color="#EE2216"/>
<stop offset="0.67" stop-color="#F9B233"/>
</linearGradient>
<linearGradient id="paint2_linear" x1="1.20323" y1="57.2704" x2="105.658" y2="70.3312" gradientUnits="userSpaceOnUse">
<stop stop-color="#EE2216"/>
<stop offset="0.02" stop-color="#EE2517"/>
<stop offset="0.49" stop-color="#F47126"/>
<stop offset="0.83" stop-color="#F8A02F"/>
<stop offset="1" stop-color="#F9B233"/>
</linearGradient>
<linearGradient id="paint3_linear" x1="3899.21" y1="2971.22" x2="5149.8" y2="3047.1" gradientUnits="userSpaceOnUse">
<stop stop-color="#EE2216"/>
<stop offset="0.02" stop-color="#EE2517"/>
<stop offset="0.49" stop-color="#F47126"/>
<stop offset="0.83" stop-color="#F8A02F"/>
<stop offset="1" stop-color="#F9B233"/>
</linearGradient>
</defs>
</svg>
