<svg width="240" height="98" viewBox="0 0 240 98" fill="none" xmlns="http://www.w3.org/2000/svg">
<path d="M49.0748 98C76.1781 98 98.1497 76.062 98.1497 49C98.1497 21.938 76.1781 0 49.0748 0C21.9715 0 0 21.938 0 49C0 76.062 21.9715 98 49.0748 98Z" fill="url(#paint0_linear)"/>
<path d="M49.0748 74.5633C63.2148 74.5633 74.6775 63.118 74.6775 48.9997C74.6775 34.8813 63.2148 23.436 49.0748 23.436C34.9349 23.436 23.4722 34.8813 23.4722 48.9997C23.4722 63.118 34.9349 74.5633 49.0748 74.5633Z" fill="url(#paint1_linear)"/>
<path d="M28.0943 23.8853H23.8555C22.3124 23.8853 21.0615 25.1342 21.0615 26.6749C21.0615 28.2157 22.3124 29.4646 23.8555 29.4646H28.0943C29.6374 29.4646 30.8883 28.2157 30.8883 26.6749C30.8883 25.1342 29.6374 23.8853 28.0943 23.8853Z" fill="white"/>
<path d="M69.952 34.9927H65.7131C64.1701 34.9927 62.9192 36.2417 62.9192 37.7824C62.9192 39.3231 64.1701 40.5721 65.7131 40.5721H69.952C71.4951 40.5721 72.746 39.3231 72.746 37.7824C72.746 36.2417 71.4951 34.9927 69.952 34.9927Z" fill="white"/>
<path d="M136.093 33.0567C134.691 32.4748 133.188 32.1753 131.67 32.1753C130.152 32.1753 128.648 32.4748 127.247 33.0567C126.065 33.606 125.082 34.5056 124.43 35.633C123.75 36.8955 123.415 38.3146 123.457 39.7476V57.4132C123.417 58.8311 123.75 60.2347 124.423 61.4837C125.078 62.6077 126.06 63.5062 127.239 64.0599C128.64 64.6466 130.143 64.9487 131.662 64.9487C133.181 64.9487 134.685 64.6466 136.085 64.0599C137.264 63.5082 138.244 62.609 138.894 61.4837C139.573 60.2366 139.909 58.832 139.867 57.4132V39.7476C139.907 38.3266 139.571 36.9202 138.894 35.6698C138.256 34.5286 137.277 33.615 136.093 33.0567ZM134.338 56.6109C134.349 57.1188 134.243 57.6224 134.029 58.083C133.828 58.485 133.509 58.8163 133.115 59.0326C132.659 59.2668 132.152 59.3808 131.64 59.3638C131.143 59.3755 130.651 59.2616 130.21 59.0326C129.836 58.8293 129.529 58.5226 129.325 58.1493C129.111 57.6887 129.005 57.185 129.016 56.6771V40.3732C129.003 39.8652 129.109 39.3612 129.325 38.9011C129.526 38.5029 129.842 38.1745 130.232 37.9589C130.673 37.7299 131.165 37.616 131.662 37.6277C132.174 37.6107 132.682 37.7247 133.137 37.9589C133.53 38.1733 133.849 38.5019 134.051 38.9011C134.267 39.3612 134.373 39.8652 134.36 40.3732L134.338 56.6109Z" fill="white"/>
<path d="M157.634 32.5044L149.974 64.5454H155.407L156.388 59.5696H162.72L163.701 64.5454H169.134L161.445 32.5044H157.634ZM157.398 54.4686L159.558 43.5601L161.71 54.4686H157.398Z" fill="white"/>
<path d="M191.67 48.1388C190.731 47.4713 189.745 46.8711 188.721 46.3428L188.647 46.2986L188.566 46.2545L188.05 45.9895C187.881 45.9011 187.718 45.8275 187.556 45.7539C186.701 45.327 186.038 44.959 185.558 44.6572C185.068 44.3751 184.639 43.9971 184.298 43.5457C183.978 43.0891 183.813 42.5423 183.826 41.9853V39.8433C183.808 39.5258 183.856 39.208 183.968 38.9102C184.08 38.6124 184.252 38.3411 184.475 38.1135C184.725 37.8932 185.017 37.7245 185.334 37.6171C185.65 37.5098 185.984 37.4658 186.318 37.4879C186.643 37.4669 186.969 37.5181 187.273 37.6377C187.576 37.7573 187.849 37.9424 188.072 38.1798C188.518 38.7203 188.742 39.4095 188.699 40.1083V41.9558L194.154 41.8896V40.0641C194.196 38.5893 193.877 37.1265 193.225 35.8023C192.633 34.6562 191.701 33.7205 190.557 33.123C189.248 32.4746 187.8 32.1562 186.34 32.1956C184.851 32.1536 183.374 32.4718 182.035 33.123C180.87 33.7127 179.917 34.6489 179.307 35.8023C178.654 37.1025 178.332 38.5437 178.371 39.9979V41.654C178.325 43.0297 178.613 44.396 179.211 45.6362C179.715 46.6372 180.43 47.5183 181.305 48.2198C182.261 48.9265 183.283 49.5403 184.357 50.0526L184.637 50.185L184.806 50.2734L184.969 50.3617C185.868 50.8033 186.576 51.1861 187.099 51.4952C187.594 51.7865 188.029 52.1686 188.382 52.6214C188.715 53.0615 188.889 53.6011 188.876 54.1525V56.9495C188.915 57.636 188.682 58.3104 188.227 58.8265C187.985 59.0631 187.696 59.2463 187.378 59.3643C187.061 59.4822 186.722 59.5322 186.384 59.511C186.034 59.5264 185.685 59.4688 185.359 59.3421C185.033 59.2154 184.737 59.0222 184.489 58.775C184.252 58.5197 184.07 58.2192 183.952 57.8916C183.834 57.564 183.784 57.216 183.804 56.8685V55.205L178.349 55.2492V56.9642C178.309 58.4446 178.638 59.9115 179.307 61.2334C179.934 62.3988 180.904 63.3442 182.086 63.9421C183.432 64.5977 184.917 64.9185 186.414 64.8769C187.896 64.9187 189.367 64.5977 190.697 63.9421C191.862 63.3392 192.814 62.3937 193.424 61.2334C194.078 59.9072 194.399 58.442 194.36 56.9642V54.2997C194.41 52.9758 194.137 51.6597 193.564 50.4648C193.114 49.5581 192.467 48.7634 191.67 48.1388Z" fill="white"/>
<path d="M211.913 32.5044H206.436V64.5454H211.913V32.5044Z" fill="white"/>
<path d="M239.204 50.4648C238.747 49.5559 238.092 48.761 237.287 48.1388C236.348 47.4713 235.362 46.8711 234.338 46.3428L234.265 46.2986L234.183 46.2545L233.667 45.9895C233.498 45.9011 233.336 45.8275 233.174 45.7539C232.318 45.327 231.655 44.959 231.176 44.6572C230.717 44.3658 230.319 43.9883 230.004 43.5457C229.684 43.0891 229.518 42.5423 229.532 41.9853V39.8433C229.514 39.5258 229.562 39.208 229.674 38.9102C229.785 38.6124 229.958 38.3411 230.181 38.1135C230.431 37.8932 230.723 37.7245 231.039 37.6171C231.356 37.5098 231.69 37.4658 232.023 37.4879C232.349 37.4669 232.675 37.5181 232.978 37.6377C233.282 37.7573 233.555 37.9424 233.778 38.1798C234.224 38.7203 234.448 39.4095 234.405 40.1083V41.9558L239.86 41.8896V40.0641C239.901 38.5893 239.583 37.1265 238.931 35.8023C238.323 34.6474 237.37 33.7107 236.203 33.123C234.895 32.4746 233.447 32.1562 231.987 32.1956C230.498 32.1536 229.021 32.4718 227.681 33.123C226.516 33.7127 225.563 34.6489 224.954 35.8023C224.3 37.1025 223.979 38.5437 224.018 39.9979V41.654C223.967 43.0285 224.25 44.3947 224.843 45.6362C225.348 46.6372 226.062 47.5183 226.937 48.2198C227.898 48.9273 228.925 49.5411 230.004 50.0526L230.284 50.185L230.453 50.2734L230.615 50.3617C231.515 50.8033 232.223 51.1861 232.746 51.4952C233.241 51.7865 233.676 52.1686 234.029 52.6214C234.362 53.0615 234.536 53.6011 234.523 54.1525V56.9495C234.562 57.636 234.329 58.3104 233.874 58.8265C233.632 59.0631 233.343 59.2463 233.025 59.3643C232.708 59.4822 232.369 59.5322 232.031 59.511C231.681 59.5264 231.332 59.4688 231.006 59.3421C230.68 59.2154 230.384 59.0222 230.136 58.775C229.899 58.5197 229.716 58.2192 229.599 57.8916C229.481 57.564 229.43 57.216 229.451 56.8685V55.205L223.995 55.2492V56.9642C223.956 58.4446 224.285 59.9115 224.954 61.2334C225.579 62.3977 226.546 63.343 227.726 63.9421C229.071 64.5977 230.556 64.9185 232.053 64.8769C233.536 64.9187 235.006 64.5977 236.336 63.9421C237.501 63.3392 238.453 62.3937 239.064 61.2334C239.718 59.9072 240.039 58.442 240 56.9642V54.2997C240.05 52.9758 239.777 51.6597 239.204 50.4648Z" fill="white"/>
<path d="M77.3534 37.7676C77.3573 38.5024 77.6513 39.206 78.1717 39.7256C78.6921 40.2452 79.3967 40.5388 80.1326 40.5426H83.8923C84.6294 40.5426 85.3363 40.835 85.8575 41.3554C86.3787 41.8758 86.6715 42.5816 86.6715 43.3176C86.6715 44.0536 86.3787 44.7594 85.8575 45.2798C85.3363 45.8002 84.6294 46.0926 83.8923 46.0926H61.3785C61.002 46.0732 60.6254 46.1305 60.2718 46.261C59.9182 46.3915 59.5948 46.5925 59.3214 46.8518C59.0481 47.111 58.8304 47.4231 58.6816 47.769C58.5329 48.1149 58.4562 48.4874 58.4562 48.8639C58.4562 49.2403 58.5329 49.6128 58.6816 49.9587C58.8304 50.3046 59.0481 50.6167 59.3214 50.8759C59.5948 51.1352 59.9182 51.3362 60.2718 51.4667C60.6254 51.5972 61.002 51.6545 61.3785 51.6352H89.7014C90.4379 51.6371 91.1436 51.9301 91.6644 52.4501C92.1852 52.9701 92.4786 53.6748 92.4806 54.4101C92.4786 55.1455 92.1852 55.8502 91.6644 56.3702C91.1436 56.8902 90.4379 57.1832 89.7014 57.1851H80.1179C79.382 57.189 78.6773 57.4826 78.157 58.0021C77.6366 58.5217 77.3425 59.2253 77.3387 59.9601C77.3425 60.6949 77.6366 61.3984 78.157 61.918C78.6773 62.4376 79.382 62.7312 80.1179 62.7351H96.1665C97.4732 58.2734 98.1359 53.6485 98.1348 49C98.1348 48.0211 98.1348 47.0568 98.0464 46.0926H97.4714C96.7587 46.0666 96.0833 45.7681 95.5849 45.2587C95.0865 44.7494 94.8032 44.0683 94.7938 43.3563C94.7843 42.6443 95.0493 41.9559 95.534 41.4335C96.0187 40.9112 96.6859 40.5948 97.3976 40.55C97.0699 38.6741 96.6343 36.8186 96.0928 34.9927H80.1326C79.3967 34.9965 78.6921 35.2901 78.1717 35.8097C77.6513 36.3293 77.3573 37.0329 77.3534 37.7676Z" fill="white"/>
<path d="M42.8013 37.8337C42.7994 37.0945 42.5044 36.386 41.9808 35.8633C41.4573 35.3405 40.7478 35.046 40.0074 35.044H8.51455C7.77355 35.044 7.0629 34.7501 6.53893 34.227C6.01496 33.7038 5.7206 32.9942 5.7206 32.2543C5.7206 31.5145 6.01496 30.8049 6.53893 30.2817C7.0629 29.7586 7.77355 29.4646 8.51455 29.4646H15.1493C15.8903 29.4646 16.6009 29.1707 17.1249 28.6476C17.6489 28.1244 17.9432 27.4148 17.9432 26.6749C17.9432 25.9351 17.6489 25.2255 17.1249 24.7023C16.6009 24.1792 15.8903 23.8853 15.1493 23.8853H6.93696C3.85446 29.0353 1.75252 34.7101 0.737183 40.6234H40.0074C40.7472 40.6196 41.4556 40.3244 41.9787 39.8021C42.5018 39.2797 42.7975 38.5724 42.8013 37.8337Z" fill="white"/>
<path d="M49.0747 97.9996C60.6705 97.9982 71.8911 93.897 80.7473 86.4232C89.6035 78.9494 95.5231 68.5859 97.4566 57.1699H0.692871C2.62636 68.5859 8.54597 78.9494 17.4022 86.4232C26.2584 93.897 37.479 97.9982 49.0747 97.9996Z" fill="url(#paint2_linear)"/>
<path d="M42.0198 82.6676C41.3906 82.6676 40.7675 82.5439 40.1861 82.3034C39.6048 82.063 39.0765 81.7106 38.6316 81.2663C38.1866 80.822 37.8337 80.2946 37.5928 79.7141C37.352 79.1336 37.2281 78.5115 37.2281 77.8832C37.2281 77.2549 37.352 76.6327 37.5928 76.0523C37.8337 75.4718 38.1866 74.9443 38.6316 74.5001C39.0765 74.0558 39.6048 73.7034 40.1861 73.4629C40.7675 73.2225 41.3906 73.0987 42.0198 73.0987H56.0265C56.789 73.0987 57.5203 72.7963 58.0594 72.2579C58.5986 71.7196 58.9015 70.9894 58.9015 70.2281C58.9015 69.4667 58.5986 68.7366 58.0594 68.1982C57.5203 67.6599 56.789 67.3574 56.0265 67.3574H3.57532C6.65599 74.9675 11.6022 81.6827 17.9598 86.8865C24.3173 92.0902 31.8824 95.6157 39.9603 97.1391C48.0382 98.6625 56.37 98.1351 64.1905 95.6052C72.011 93.0753 79.0695 88.6241 84.718 82.6603H42.0198V82.6676Z" fill="url(#paint3_linear)"/>
<defs>
<linearGradient id="paint0_linear" x1="49.0748" y1="-17.408" x2="49.0748" y2="59.2387" gradientUnits="userSpaceOnUse">
<stop stop-color="#15FFFB"/>
<stop offset="0.17" stop-color="#F9B233"/>
<stop offset="0.29" stop-color="#F38B30"/>
<stop offset="0.42" stop-color="#EE6C2E"/>
<stop offset="0.55" stop-color="#EB532C"/>
<stop offset="0.68" stop-color="#E8412B"/>
<stop offset="0.83" stop-color="#E7362A"/>
<stop offset="1" stop-color="#E6332A"/>
</linearGradient>
<linearGradient id="paint1_linear" x1="49.0748" y1="69.2783" x2="49.0748" y2="39.4749" gradientUnits="userSpaceOnUse">
<stop stop-color="#EE2216"/>
<stop offset="0.02" stop-color="#EE2517"/>
<stop offset="0.49" stop-color="#F47126"/>
<stop offset="0.83" stop-color="#F8A02F"/>
<stop offset="1" stop-color="#F9B233"/>
</linearGradient>
<linearGradient id="paint2_linear" x1="49.0747" y1="85.3834" x2="49.0747" y2="59.6799" gradientUnits="userSpaceOnUse">
<stop stop-color="#E6332A"/>
<stop offset="1" stop-color="#F9B233"/>
</linearGradient>
<linearGradient id="paint3_linear" x1="44.1503" y1="57.8474" x2="44.1503" y2="94.5036" gradientUnits="userSpaceOnUse">
<stop stop-color="#47E98B"/>
<stop offset="1" stop-color="#FFDE55"/>
</linearGradient>
</defs>
</svg>
