<svg width="184" height="75" viewBox="0 0 184 75" fill="none" xmlns="http://www.w3.org/2000/svg">
<g clip-path="url(#clip0)">
<path d="M37.624 75C58.4032 75 75.2481 58.2107 75.2481 37.5C75.2481 16.7893 58.4032 0 37.624 0C16.8449 0 0 16.7893 0 37.5C0 58.2107 16.8449 75 37.624 75Z" fill="url(#paint0_linear)"/>
<path d="M37.6238 57.064C48.4644 57.064 57.2525 48.3049 57.2525 37.5C57.2525 26.6951 48.4644 17.936 37.6238 17.936C26.7832 17.936 17.9951 26.6951 17.9951 37.5C17.9951 48.3049 26.7832 57.064 37.6238 57.064Z" fill="url(#paint1_linear)"/>
<path d="M21.5388 18.2795H18.289C17.106 18.2795 16.147 19.2354 16.147 20.4145C16.147 21.5936 17.106 22.5495 18.289 22.5495H21.5388C22.7218 22.5495 23.6808 21.5936 23.6808 20.4145C23.6808 19.2354 22.7218 18.2795 21.5388 18.2795Z" fill="white"/>
<path d="M53.6299 26.78H50.3801C49.1971 26.78 48.238 27.7359 48.238 28.915C48.238 30.0941 49.1971 31.05 50.3801 31.05H53.6299C54.8129 31.05 55.7719 30.0941 55.7719 28.915C55.7719 27.7359 54.8129 26.78 53.6299 26.78Z" fill="white"/>
<path d="M104.338 25.2984C103.263 24.853 102.111 24.6238 100.947 24.6238C99.7829 24.6238 98.6305 24.853 97.5558 25.2984C96.6499 25.7187 95.896 26.4072 95.3968 27.27C94.8752 28.2362 94.6179 29.3222 94.6507 30.4189V43.9385C94.6195 45.0236 94.8748 46.0978 95.3911 47.0536C95.8935 47.9139 96.6465 48.6015 97.5501 49.0253C98.6239 49.4742 99.7767 49.7055 100.941 49.7055C102.106 49.7055 103.258 49.4742 104.332 49.0253C105.235 48.603 105.987 47.9149 106.486 47.0536C107.006 46.0992 107.264 45.0244 107.232 43.9385V30.4189C107.262 29.3314 107.005 28.2551 106.486 27.2981C105.996 26.4247 105.245 25.7256 104.338 25.2984ZM102.993 43.3245C103.001 43.7132 102.92 44.0986 102.755 44.4511C102.601 44.7588 102.357 45.0123 102.055 45.1778C101.706 45.357 101.317 45.4443 100.924 45.4313C100.543 45.4403 100.166 45.3531 99.8278 45.1778C99.5412 45.0222 99.3057 44.7875 99.1496 44.5018C98.985 44.1493 98.9038 43.7639 98.9122 43.3752V30.8977C98.9026 30.5089 98.9838 30.1232 99.1496 29.7711C99.303 29.4663 99.5454 29.215 99.8447 29.05C100.183 28.8748 100.56 28.7876 100.941 28.7966C101.334 28.7835 101.723 28.8708 102.072 29.05C102.373 29.2141 102.617 29.4655 102.772 29.7711C102.938 30.1232 103.019 30.5089 103.01 30.8977L102.993 43.3245Z" fill="#18181C"/>
<path d="M120.852 24.876L114.98 49.3972H119.146L119.897 45.5891H124.752L125.504 49.3972H129.669L123.774 24.876H120.852ZM120.672 41.6854L122.328 33.337L123.978 41.6854H120.672Z" fill="#18181C"/>
<path d="M146.947 36.8407C146.227 36.3299 145.471 35.8706 144.686 35.4662L144.63 35.4324L144.568 35.3986L144.172 35.1958C144.042 35.1282 143.918 35.0719 143.793 35.0156C143.138 34.6889 142.629 34.4072 142.262 34.1762C141.885 33.9604 141.557 33.6711 141.295 33.3256C141.05 32.9762 140.923 32.5577 140.933 32.1314V30.4921C140.92 30.2492 140.957 30.006 141.042 29.778C141.128 29.5501 141.26 29.3425 141.431 29.1684C141.623 28.9997 141.847 28.8706 142.089 28.7884C142.332 28.7063 142.588 28.6727 142.844 28.6895C143.093 28.6735 143.343 28.7126 143.576 28.8042C143.808 28.8957 144.018 29.0374 144.189 29.2191C144.531 29.6327 144.702 30.1601 144.669 30.6949V32.1089L148.852 32.0582V30.6611C148.884 29.5324 148.639 28.413 148.139 27.3995C147.685 26.5224 146.971 25.8063 146.093 25.3491C145.09 24.8528 143.98 24.6091 142.861 24.6393C141.719 24.6072 140.587 24.8507 139.56 25.3491C138.667 25.8004 137.936 26.5168 137.469 27.3995C136.968 28.3946 136.721 29.4976 136.751 30.6104V31.8779C136.716 32.9307 136.937 33.9764 137.395 34.9255C137.782 35.6916 138.329 36.3659 139 36.9027C139.734 37.4436 140.517 37.9133 141.34 38.3054L141.555 38.4067L141.685 38.4743L141.809 38.5419C142.499 38.8799 143.042 39.1729 143.443 39.4095C143.822 39.6324 144.156 39.9248 144.426 40.2713C144.681 40.6081 144.815 41.0211 144.805 41.443V43.5836C144.835 44.109 144.656 44.6251 144.308 45.0201C144.122 45.2012 143.9 45.3414 143.657 45.4316C143.413 45.5219 143.154 45.5602 142.895 45.544C142.627 45.5557 142.359 45.5117 142.109 45.4147C141.859 45.3177 141.632 45.1699 141.442 44.9807C141.26 44.7853 141.12 44.5554 141.03 44.3046C140.94 44.0539 140.901 43.7876 140.916 43.5217V42.2486L136.734 42.2824V43.5949C136.704 44.7278 136.956 45.8505 137.469 46.8621C137.95 47.754 138.693 48.4775 139.6 48.9351C140.631 49.4369 141.77 49.6823 142.917 49.6506C144.054 49.6825 145.181 49.4369 146.201 48.9351C147.094 48.4737 147.824 47.7501 148.292 46.8621C148.793 45.8471 149.04 44.7259 149.01 43.5949V41.5557C149.048 40.5425 148.839 39.5353 148.399 38.6208C148.054 37.9269 147.558 37.3187 146.947 36.8407Z" fill="#18181C"/>
<path d="M162.467 24.876H158.267V49.3972H162.467V24.876Z" fill="#18181C"/>
<path d="M183.39 38.6208C183.04 37.9252 182.538 37.3169 181.92 36.8407C181.2 36.3299 180.445 35.8706 179.659 35.4662L179.603 35.4324L179.541 35.3986L179.145 35.1958C179.015 35.1282 178.891 35.0719 178.766 35.0156C178.111 34.6889 177.602 34.4072 177.235 34.1762C176.883 33.9532 176.578 33.6644 176.336 33.3256C176.091 32.9762 175.964 32.5577 175.974 32.1314V30.4921C175.961 30.2492 175.998 30.006 176.083 29.778C176.169 29.5501 176.301 29.3425 176.472 29.1684C176.664 28.9997 176.888 28.8706 177.13 28.7884C177.373 28.7063 177.629 28.6727 177.885 28.6895C178.134 28.6735 178.384 28.7126 178.617 28.8042C178.849 28.8957 179.059 29.0374 179.23 29.2191C179.572 29.6327 179.743 30.1601 179.71 30.6949V32.1089L183.893 32.0582V30.6611C183.925 29.5324 183.68 28.413 183.181 27.3995C182.715 26.5157 181.984 25.7988 181.089 25.3491C180.086 24.8528 178.976 24.6091 177.857 24.6393C176.715 24.6072 175.583 24.8507 174.556 25.3491C173.663 25.8004 172.932 26.5168 172.465 27.3995C171.964 28.3946 171.717 29.4976 171.747 30.6104V31.8779C171.708 32.9298 171.925 33.9754 172.38 34.9255C172.767 35.6916 173.314 36.3659 173.985 36.9027C174.722 37.4442 175.509 37.9139 176.336 38.3054L176.551 38.4067L176.681 38.4743L176.805 38.5419C177.495 38.8799 178.037 39.1729 178.439 39.4095C178.818 39.6324 179.152 39.9248 179.422 40.2713C179.677 40.6081 179.811 41.0211 179.801 41.443V43.5836C179.831 44.109 179.652 44.6251 179.303 45.0201C179.118 45.2012 178.896 45.3414 178.653 45.4316C178.409 45.5219 178.15 45.5602 177.89 45.544C177.622 45.5557 177.355 45.5117 177.105 45.4147C176.855 45.3177 176.628 45.1699 176.438 44.9807C176.256 44.7853 176.116 44.5554 176.026 44.3046C175.935 44.0539 175.897 43.7876 175.912 43.5217V42.2486L171.73 42.2824V43.5949C171.7 44.7278 171.952 45.8505 172.465 46.8621C172.944 47.7532 173.686 48.4766 174.59 48.9351C175.622 49.4369 176.76 49.6823 177.907 49.6506C179.044 49.6825 180.171 49.4369 181.191 48.9351C182.085 48.4737 182.814 47.7501 183.282 46.8621C183.784 45.8471 184.03 44.7259 184 43.5949V41.5557C184.038 40.5425 183.829 39.5353 183.39 38.6208Z" fill="#18181C"/>
<path d="M59.3043 28.9037C59.3073 29.4661 59.5327 30.0045 59.9316 30.4021C60.3306 30.7998 60.8708 31.0245 61.435 31.0274H64.3174C64.8825 31.0274 65.4245 31.2512 65.8241 31.6495C66.2237 32.0477 66.4482 32.5879 66.4482 33.1511C66.4482 33.7144 66.2237 34.2546 65.8241 34.6528C65.4245 35.0511 64.8825 35.2748 64.3174 35.2748H47.0568C46.7682 35.26 46.4795 35.3039 46.2084 35.4038C45.9373 35.5037 45.6894 35.6575 45.4798 35.8559C45.2702 36.0543 45.1033 36.2931 44.9893 36.5578C44.8752 36.8226 44.8164 37.1076 44.8164 37.3957C44.8164 37.6838 44.8752 37.9689 44.9893 38.2336C45.1033 38.4984 45.2702 38.7372 45.4798 38.9356C45.6894 39.134 45.9373 39.2878 46.2084 39.3877C46.4795 39.4876 46.7682 39.5315 47.0568 39.5166H68.7711C69.3357 39.5181 69.8768 39.7423 70.2761 40.1403C70.6753 40.5382 70.9003 41.0775 70.9018 41.6403C70.9003 42.2031 70.6753 42.7424 70.2761 43.1404C69.8768 43.5383 69.3357 43.7625 68.7711 43.764H61.4237C60.8595 43.767 60.3193 43.9917 59.9203 44.3893C59.5214 44.787 59.296 45.3254 59.293 45.8877C59.296 46.4501 59.5214 46.9885 59.9203 47.3862C60.3193 47.7838 60.8595 48.0085 61.4237 48.0114H73.7277C74.7294 44.5969 75.2376 41.0575 75.2367 37.4999C75.2367 36.7507 75.2367 36.0128 75.1689 35.2748H74.728C74.1817 35.255 73.6638 35.0265 73.2817 34.6367C72.8996 34.2469 72.6825 33.7257 72.6752 33.1808C72.668 32.6359 72.8712 32.109 73.2427 31.7093C73.6143 31.3095 74.1259 31.0674 74.6715 31.0331C74.4203 29.5974 74.0863 28.1774 73.6712 26.78H61.435C60.8708 26.783 60.3306 27.0077 59.9316 27.4053C59.5327 27.8029 59.3073 28.3414 59.3043 28.9037Z" fill="white"/>
<path d="M32.8144 28.9544C32.8129 28.3886 32.5867 27.8464 32.1853 27.4464C31.7839 27.0463 31.24 26.8209 30.6723 26.8194H6.52784C5.95973 26.8194 5.4149 26.5945 5.01319 26.1941C4.61148 25.7937 4.3858 25.2507 4.3858 24.6845C4.3858 24.1182 4.61148 23.5752 5.01319 23.1748C5.4149 22.7744 5.95973 22.5495 6.52784 22.5495H11.6145C12.1826 22.5495 12.7274 22.3245 13.1291 21.9242C13.5308 21.5238 13.7565 20.9807 13.7565 20.4145C13.7565 19.8483 13.5308 19.3052 13.1291 18.9049C12.7274 18.5045 12.1826 18.2795 11.6145 18.2795H5.31835C2.9551 22.2209 1.34361 26.5638 0.565186 31.0894H30.6723C31.2395 31.0864 31.7826 30.8605 32.1837 30.4608C32.5848 30.061 32.8114 29.5197 32.8144 28.9544Z" fill="white"/>
<path d="M37.624 74.9999C46.5141 74.9988 55.1165 71.8602 61.9063 66.1404C68.6961 60.4207 73.2344 52.4894 74.7168 43.7527H0.53125C2.01359 52.4894 6.55196 60.4207 13.3417 66.1404C20.1315 71.8602 28.734 74.9988 37.624 74.9999Z" fill="url(#paint2_linear)"/>
<path d="M32.2151 63.2661C31.7327 63.2661 31.255 63.1713 30.8092 62.9873C30.3635 62.8033 29.9586 62.5336 29.6174 62.1936C29.2763 61.8536 29.0057 61.45 28.8211 61.0057C28.6365 60.5615 28.5414 60.0853 28.5414 59.6045C28.5414 59.1237 28.6365 58.6475 28.8211 58.2033C29.0057 57.759 29.2763 57.3554 29.6174 57.0154C29.9586 56.6754 30.3635 56.4057 30.8092 56.2217C31.255 56.0377 31.7327 55.9429 32.2151 55.9429H42.9535C43.5381 55.9429 44.0988 55.7115 44.5121 55.2995C44.9255 54.8875 45.1577 54.3287 45.1577 53.746C45.1577 53.1633 44.9255 52.6045 44.5121 52.1925C44.0988 51.7805 43.5381 51.5491 42.9535 51.5491H2.74097C5.10282 57.3731 8.89492 62.5123 13.769 66.4948C18.6432 70.4772 24.4431 73.1753 30.6361 74.3412C36.8292 75.5071 43.2169 75.1034 49.2126 73.1673C55.2083 71.2311 60.6199 67.8246 64.9503 63.2604H32.2151V63.2661Z" fill="url(#paint3_linear)"/>
</g>
<defs>
<linearGradient id="paint0_linear" x1="37.624" y1="-13.3224" x2="37.624" y2="45.3357" gradientUnits="userSpaceOnUse">
<stop stop-color="#15FFFB"/>
<stop offset="0.17" stop-color="#F9B233"/>
<stop offset="0.29" stop-color="#F38B30"/>
<stop offset="0.42" stop-color="#EE6C2E"/>
<stop offset="0.55" stop-color="#EB532C"/>
<stop offset="0.68" stop-color="#E8412B"/>
<stop offset="0.83" stop-color="#E7362A"/>
<stop offset="1" stop-color="#E6332A"/>
</linearGradient>
<linearGradient id="paint1_linear" x1="37.6238" y1="53.0194" x2="37.6238" y2="30.2107" gradientUnits="userSpaceOnUse">
<stop stop-color="#EE2216"/>
<stop offset="0.02" stop-color="#EE2517"/>
<stop offset="0.49" stop-color="#F47126"/>
<stop offset="0.83" stop-color="#F8A02F"/>
<stop offset="1" stop-color="#F9B233"/>
</linearGradient>
<linearGradient id="paint2_linear" x1="37.624" y1="65.3446" x2="37.624" y2="45.6736" gradientUnits="userSpaceOnUse">
<stop stop-color="#E6332A"/>
<stop offset="1" stop-color="#F9B233"/>
</linearGradient>
<linearGradient id="paint3_linear" x1="33.8485" y1="44.271" x2="33.8485" y2="72.3242" gradientUnits="userSpaceOnUse">
<stop stop-color="#47E98B"/>
<stop offset="1" stop-color="#FFDE55"/>
</linearGradient>
<clipPath id="clip0">
<rect width="184" height="75" fill="white"/>
</clipPath>
</defs>
</svg>
