<svg width="36" height="48" viewBox="0 0 36 48" fill="none" xmlns="http://www.w3.org/2000/svg">
<path d="M35.66 28.6V28.14C35.11 21.03 31.8 16.58 28.88 12.65C26.18 9.00996 23.88 5.86996 23.88 1.22996C23.8786 1.04803 23.8275 0.869948 23.7324 0.714882C23.6372 0.559816 23.5015 0.433644 23.34 0.34996C23.1819 0.272588 23.0062 0.238319 22.8306 0.25061C22.655 0.262901 22.4858 0.321316 22.34 0.41996C17.8206 3.74739 14.5407 8.48773 13.02 13.89C12.2954 17.1962 11.9598 20.5758 12.02 23.96C7.96999 23.1 7.01999 17.04 7.01999 16.96C6.99626 16.8057 6.93675 16.6591 6.84622 16.532C6.75569 16.4048 6.63667 16.3007 6.49866 16.2278C6.36065 16.1549 6.2075 16.1153 6.05145 16.1122C5.89541 16.1091 5.7408 16.1426 5.60001 16.21C5.39001 16.31 0.390006 18.85 0.100006 28.99C0.100006 29.33 0.100006 29.67 0.100006 29.99C0.100006 34.7294 1.98274 39.2747 5.33401 42.626C8.68529 45.9772 13.2306 47.86 17.97 47.86C22.7094 47.86 27.2547 45.9772 30.606 42.626C33.9573 39.2747 35.84 34.7294 35.84 29.99C35.73 29.52 35.69 29.06 35.66 28.6ZM17.86 45.9C17.0496 45.8779 16.2516 45.6965 15.5114 45.3659C14.7712 45.0353 14.1034 44.5621 13.5462 43.9733C12.989 43.3845 12.5533 42.6917 12.264 41.9344C11.9746 41.1771 11.8374 40.3703 11.86 39.56C11.86 39.44 11.86 39.32 11.86 39.17C11.8548 38.0882 12.0692 37.0166 12.49 36.02C12.7397 36.696 13.185 37.2823 13.7691 37.7044C14.3532 38.1265 15.0498 38.3651 15.77 38.39C16.0352 38.39 16.2896 38.2846 16.4771 38.0971C16.6646 37.9095 16.77 37.6552 16.77 37.39C16.7248 35.8738 16.8523 34.3573 17.15 32.87C17.5189 31.4676 18.2029 30.168 19.15 29.07C19.615 30.4275 20.3083 31.6957 21.2 32.82C22.6497 34.5849 23.5347 36.7452 23.74 39.02C23.74 39.19 23.74 39.36 23.74 39.55C23.789 41.1682 23.2 42.7408 22.1 43.9287C21 45.1166 19.4772 45.8246 17.86 45.9ZM24.13 44.6C25.2031 43.1527 25.788 41.4016 25.8 39.6C25.8 39.36 25.8 39.14 25.8 38.74C25.5486 36.1726 24.543 33.737 22.91 31.74C21.85 30.23 20.91 28.93 20.91 27.09C20.9094 26.9053 20.8578 26.7244 20.7607 26.5673C20.6636 26.4102 20.5249 26.2831 20.36 26.2C20.1993 26.1269 20.0222 26.0977 19.8465 26.1152C19.6709 26.1328 19.503 26.1965 19.36 26.3C17.3715 27.8583 15.9489 30.0257 15.31 32.47C15.0601 33.6276 14.9195 34.8061 14.89 35.99C14.4151 35.3673 14.1054 34.6345 13.99 33.86C13.9673 33.703 13.9077 33.5536 13.8159 33.4243C13.7241 33.2949 13.6029 33.1892 13.4622 33.1159C13.3215 33.0427 13.1654 33.0039 13.0068 33.0029C12.8482 33.0018 12.6916 33.0385 12.55 33.11C12.3 33.24 10.1 34.5 9.98001 39.11C9.98001 39.26 9.98001 39.42 9.98001 39.58C9.99204 41.3816 10.5769 43.1327 11.65 44.58C8.79123 43.3607 6.35309 41.3293 4.63774 38.7376C2.9224 36.1459 2.00527 33.1079 2 30C2 29.7 2 29.4 2 29.07C2.17 23.07 4.07 20.17 5.31 18.87C6.18 21.97 8.44999 26.03 12.9 26.03C13.1652 26.03 13.4196 25.9246 13.6071 25.7371C13.7947 25.5495 13.9 25.2952 13.9 25.03C13.7988 21.4459 14.1346 17.8628 14.9 14.36C16.1492 10.034 18.6133 6.15727 22 3.18996C22.55 7.43996 24.86 10.55 27.3 13.83C30.19 17.73 33.18 21.75 33.69 28.27V28.75C33.69 29.16 33.75 29.57 33.75 30.02C33.7472 33.1245 32.8346 36.1602 31.1248 38.7515C29.415 41.3428 26.9832 43.3761 24.13 44.6Z" fill="white"/>
</svg>
