<svg width="77" height="77" viewBox="0 0 77 77" fill="none" xmlns="http://www.w3.org/2000/svg">
<path d="M75.8354 17.7846C75.83 17.7521 75.8312 17.7178 75.8227 17.6859C75.7994 17.5982 75.7648 17.5139 75.7199 17.4351C75.7048 17.408 75.682 17.3864 75.6639 17.3611C75.6316 17.3103 75.595 17.2624 75.5544 17.2179C75.5298 17.1927 75.4985 17.1752 75.4714 17.1523C75.4313 17.1153 75.3882 17.0815 75.3427 17.0513L75.3349 17.0483L75.3283 17.0435L66.5328 12.0042C66.3735 11.9129 66.1931 11.865 66.0095 11.865C65.8259 11.865 65.6454 11.9129 65.4861 12.0042L56.6858 17.0429L56.6792 17.0477L56.6714 17.0507C56.6257 17.0811 56.5824 17.1151 56.5421 17.1523C56.515 17.1746 56.4819 17.1927 56.4597 17.2173C56.4186 17.2623 56.3816 17.3108 56.349 17.3623C56.3315 17.3876 56.3093 17.4086 56.2942 17.4351C56.2493 17.5139 56.2147 17.5982 56.1913 17.6859C56.1829 17.7166 56.1841 17.7497 56.1787 17.781C56.1661 17.8386 56.1585 17.8971 56.1559 17.956V20.1006L48.3289 15.1991C48.3403 15.1464 48.3476 15.0929 48.3506 15.0391V6.2406C48.3478 6.18272 48.3402 6.12516 48.3277 6.06856C48.3223 6.03607 48.3235 6.00178 48.3151 5.9699C48.2917 5.88241 48.2571 5.79829 48.2122 5.71965C48.1912 5.68839 48.1685 5.65827 48.1442 5.62942C48.1153 5.58469 48.0829 5.54226 48.0474 5.50249C48.0157 5.47448 47.9823 5.44836 47.9475 5.42428C47.9119 5.39222 47.8741 5.36268 47.8344 5.33585H47.8284L47.8242 5.32683L39.0234 0.288144C38.864 0.196918 38.6836 0.148926 38.5 0.148926C38.3164 0.148926 38.136 0.196918 37.9766 0.288144L29.1758 5.32683L29.1686 5.33225H29.1625C29.1226 5.35924 29.0846 5.38898 29.0489 5.42128C29.0143 5.44518 28.9811 5.47109 28.9496 5.49888C28.9136 5.53919 28.8808 5.58223 28.8515 5.62761C28.8278 5.65591 28.8055 5.68543 28.7848 5.71604C28.7398 5.79487 28.7052 5.87919 28.6819 5.96689C28.6735 5.99757 28.6747 6.03066 28.6693 6.06194C28.6567 6.11953 28.649 6.1781 28.6464 6.237V15.0391C28.6494 15.0931 28.6566 15.1468 28.6681 15.1997L20.8429 20.1006V17.9566C20.8402 17.8987 20.8325 17.8412 20.8201 17.7846C20.8147 17.7521 20.8159 17.7178 20.8074 17.6859C20.7841 17.5982 20.7495 17.5139 20.7046 17.4351C20.6895 17.408 20.6667 17.3864 20.6486 17.3611C20.6163 17.3103 20.5797 17.2624 20.5392 17.2179C20.5145 17.1927 20.4832 17.1752 20.4561 17.1523C20.416 17.1153 20.3729 17.0815 20.3274 17.0513L20.3196 17.0483L20.313 17.0435L11.5163 12.0042C11.357 11.9129 11.1766 11.865 10.993 11.865C10.8094 11.865 10.6289 11.9129 10.4696 12.0042L1.67114 17.0429L1.66453 17.0477L1.65671 17.0507C1.61097 17.0811 1.56772 17.1151 1.52737 17.1523C1.5003 17.1746 1.46721 17.1927 1.44496 17.2173C1.4039 17.2623 1.36687 17.3108 1.33427 17.3623C1.31682 17.3876 1.29457 17.4086 1.27953 17.4351C1.23459 17.5139 1.20001 17.5982 1.17666 17.6859C1.16824 17.7166 1.16944 17.7497 1.16403 17.781C1.15143 17.8386 1.14378 17.8971 1.14117 17.956V26.7545C1.14114 26.9435 1.19201 27.1291 1.28844 27.2917C1.38487 27.4542 1.5233 27.5879 1.68919 27.6785L9.93962 32.1836V44.2377L1.67114 48.9732L1.66453 48.978L1.65671 48.981C1.61097 49.0114 1.56772 49.0454 1.52737 49.0827C1.5003 49.1049 1.46721 49.123 1.44496 49.1476C1.4039 49.1927 1.36687 49.2412 1.33427 49.2926C1.31682 49.3179 1.29457 49.3389 1.27953 49.3654C1.23459 49.4443 1.20001 49.5286 1.17666 49.6163C1.16824 49.6469 1.16944 49.68 1.16403 49.7113C1.15143 49.7689 1.14378 49.8275 1.14117 49.8864V58.6848C1.14126 58.874 1.19231 59.0596 1.28896 59.2222C1.38561 59.3848 1.52428 59.5184 1.69039 59.6088L10.4882 64.4111C10.5377 64.4352 10.589 64.4553 10.6416 64.4713C10.6699 64.4815 10.6964 64.4965 10.7253 64.5037C10.9003 64.5514 11.085 64.5514 11.26 64.5037C11.2889 64.4959 11.3154 64.4809 11.3437 64.4713C11.3963 64.4553 11.4476 64.4352 11.4971 64.4111L18.9673 60.3331L28.6524 66.7812V71.1444C28.6524 71.3334 28.7033 71.519 28.7997 71.6815C28.8961 71.8441 29.0346 71.9778 29.2004 72.0684L37.9983 76.8707C38.0478 76.8948 38.0991 76.9149 38.1517 76.9308C38.18 76.941 38.2064 76.9561 38.2353 76.9633C38.4104 77.011 38.595 77.011 38.7701 76.9633C38.799 76.9555 38.8254 76.9404 38.8537 76.9308C38.9064 76.9149 38.9577 76.8948 39.0071 76.8707L47.8026 72.0672C47.9685 71.9766 48.1069 71.8429 48.2033 71.6804C48.2997 71.5178 48.3506 71.3322 48.3506 71.1432V66.7801L58.0357 60.3319L65.5059 64.4099C65.5554 64.434 65.6067 64.4541 65.6593 64.47C65.6876 64.4803 65.7141 64.4953 65.743 64.5025C65.918 64.5502 66.1027 64.5502 66.2778 64.5025C66.3066 64.4947 66.3331 64.4797 66.3614 64.47C66.414 64.4541 66.4653 64.434 66.5148 64.4099L75.3096 59.6088C75.4755 59.5182 75.6139 59.3846 75.7104 59.222C75.8068 59.0594 75.8577 58.8739 75.8576 58.6848V49.887C75.8549 49.8291 75.8472 49.7715 75.8348 49.7149C75.8294 49.6824 75.8306 49.6481 75.8221 49.6163C75.7988 49.5286 75.7642 49.4442 75.7193 49.3654C75.7042 49.3383 75.6814 49.3167 75.6633 49.2914C75.631 49.2406 75.5944 49.1927 75.5538 49.1483C75.5292 49.123 75.4979 49.1055 75.4708 49.0827C75.4306 49.0457 75.3876 49.0119 75.3421 48.9816L75.3343 48.9786L75.3277 48.9738L67.0592 44.2383V32.1836L75.309 27.6803C75.4749 27.5897 75.6133 27.456 75.7098 27.2935C75.8062 27.1309 75.8571 26.9453 75.857 26.7563V17.9566C75.8546 17.8988 75.8474 17.8412 75.8354 17.7846ZM44.8718 62.4717L38.5 65.9499L32.1283 62.4717L31.8588 62.3243L38.5 58.5212L45.1413 62.3219L44.8718 62.4717ZM18.7375 26.1301L12.0451 29.7828V23.3839L18.7375 19.7312V26.1301ZM10.9924 46.061L17.6336 49.8641L17.3641 50.0115L10.9924 53.4897L4.6206 50.0115L4.3511 49.8641L10.9924 46.061ZM19.7018 48.6225L12.0451 44.2371V32.1836L19.0196 28.3763L28.6494 34.6422V42.3229L19.7018 48.6225ZM30.7549 14.414V8.01521L37.4473 11.6703V18.0673L30.7549 14.414ZM46.2451 14.414L39.5527 18.0673V11.6703L46.2451 8.01642V14.414ZM38.5 30.2454L45.1413 34.0484L44.8718 34.1958L38.5 37.674L32.1283 34.1958L31.8588 34.0484L38.5 30.2454ZM30.7549 35.8453L37.4473 39.4986V45.8992L30.7549 42.2447V35.8453ZM39.5527 39.4986L46.2451 35.8453V42.2447L39.5527 45.8992V39.4986ZM48.3506 34.6422L57.9804 28.3745L64.9549 32.1836V44.2377L57.2982 48.6231L48.3506 42.3229V34.6422ZM64.9537 23.3839V29.7828L58.2625 26.1301V19.7312L64.9537 23.3839ZM58.2625 58.0604V51.661L64.9549 55.3143V61.7131L58.2625 58.0604ZM72.3794 50.0115L66.0076 53.4897L59.6353 50.0115L59.3658 49.8641L66.007 46.061L72.6483 49.8641L72.3794 50.0115ZM66.0076 14.1307L72.6489 17.9338L72.3794 18.0812L66.0076 21.5594L59.6353 18.0812L59.3658 17.9338L66.0076 14.1307ZM56.1938 27.0246L47.263 32.8375L39.5527 28.422V20.4664L46.6151 16.6103L56.1565 22.5851V26.7539C56.1571 26.8454 56.1696 26.9364 56.1938 27.0246ZM38.5 2.41527L45.1407 6.21895L38.7912 9.68515L38.5 9.84396L38.2088 9.68515L31.8594 6.21835L38.5 2.41527ZM30.3849 16.6121L37.4473 20.4682V28.422L29.737 32.8375L20.8062 27.0246C20.8302 26.9363 20.8425 26.8453 20.8429 26.7539V22.5851L30.3849 16.6121ZM10.9924 14.1307L17.6336 17.9338L17.3641 18.0812L10.9924 21.5594L4.6206 18.0812L4.3511 17.9338L10.9924 14.1307ZM3.24844 19.7312L9.94082 23.3845V29.7828L3.24844 26.1301V19.7312ZM3.24844 51.6616L9.94082 55.3149V61.7137L3.24844 58.0604V51.6616ZM12.0463 55.3149L18.7387 51.6616V58.0604L12.0463 61.7131V55.3149ZM20.7846 59.0133C20.8222 58.9075 20.8425 58.7964 20.8447 58.6842V50.3947L29.7725 44.1072L37.4473 48.2964V56.6979L29.1758 61.4334L29.1692 61.4382L29.1613 61.4412C29.1156 61.4716 29.0724 61.5056 29.032 61.5428C29.0049 61.5651 28.9719 61.5832 28.9496 61.6078C28.9085 61.6528 28.8715 61.7013 28.8389 61.7528C28.8215 61.7781 28.7992 61.7991 28.7842 61.8256C28.7392 61.9044 28.7047 61.9887 28.6813 62.0764C28.6729 62.1071 28.6741 62.1402 28.6687 62.1715C28.6561 62.2291 28.6484 62.2876 28.6458 62.3465V64.2511L20.7846 59.0133ZM30.7549 66.2122V64.1205L37.4473 67.7738V74.1727L30.7549 70.52V66.2122ZM39.5527 74.1727V67.7744L46.2451 64.1211V70.5206L39.5527 74.1727ZM48.3506 62.3465C48.3478 62.2886 48.3402 62.2311 48.3277 62.1745C48.3223 62.142 48.3235 62.1077 48.3151 62.0758C48.2918 61.9881 48.2572 61.9038 48.2122 61.825C48.1972 61.7979 48.1743 61.7763 48.1563 61.751C48.124 61.7002 48.0873 61.6523 48.0468 61.6078C48.0221 61.5826 47.9909 61.5651 47.9638 61.5422C47.9236 61.5052 47.8806 61.4714 47.835 61.4412L47.8272 61.4382L47.8206 61.4334L39.5527 56.6979V48.2964L47.2275 44.1072L56.1571 50.3947V58.6848C56.1593 58.797 56.1796 58.9081 56.2172 59.0139L48.3524 64.2517L48.3506 62.3465ZM67.0592 61.7125V55.3143L73.7516 51.661V58.0604L67.0592 61.7125ZM67.0592 29.7822V23.3839L73.7516 19.7312V26.1301L67.0592 29.7822Z" fill="#27272D"/>
</svg>
