<svg width="456" height="456" viewBox="0 0 189 189" fill="none" xmlns="http://www.w3.org/2000/svg">
<path d="M94.5 186.136C145.109 186.136 186.136 145.109 186.136 94.5C186.136 43.8906 145.109 2.86365 94.5 2.86365C43.8906 2.86365 2.86363 43.8906 2.86363 94.5C2.86363 145.109 43.8906 186.136 94.5 186.136Z" stroke="#27272D" stroke-width="2" stroke-miterlimit="10"/>
<path d="M121.79 69.3001C118.098 65.8571 113.76 63.1808 109.026 61.426C104.293 59.6711 99.2579 58.8727 94.2136 59.0769C89.0966 58.8826 83.9937 59.7347 79.2174 61.5812C74.4411 63.4277 70.092 66.2297 66.4364 69.8155C61.6241 74.5407 58.2823 80.5579 56.8145 87.1405H47.4791C45.0108 87.1405 42.6435 88.1211 40.8982 89.8664C39.1528 91.6118 38.1723 93.979 38.1723 96.4473C38.1723 98.9157 39.1528 101.283 40.8982 103.028C42.6435 104.774 45.0108 105.754 47.4791 105.754H56.7286C58.0722 112.576 61.505 118.811 66.5509 123.595C74.0587 130.524 84.0041 134.199 94.2136 133.818C99.2611 133.989 104.292 133.148 109.009 131.343C113.725 129.538 118.033 126.806 121.676 123.308C125.278 119.846 128.113 115.667 129.998 111.039C131.882 106.412 132.774 101.441 132.615 96.4473C132.835 91.414 131.983 86.3914 130.117 81.7115C128.251 77.0317 125.413 72.8013 121.79 69.3001V69.3001ZM109.591 112.255C107.628 114.33 105.234 115.949 102.577 116.998C99.9196 118.046 97.0649 118.5 94.2136 118.326C91.452 118.381 88.7099 117.851 86.168 116.77C83.626 115.689 81.3419 114.082 79.4659 112.054C77.707 110.215 76.2825 108.083 75.2564 105.754H85.1932C87.6615 105.754 90.0287 104.774 91.7741 103.028C93.5195 101.283 94.5 98.9157 94.5 96.4473C94.5 93.979 93.5195 91.6118 91.7741 89.8664C90.0287 88.1211 87.6615 87.1405 85.1932 87.1405H75.0559C76.0223 84.727 77.4415 82.5205 79.2368 80.6401C81.1652 78.6235 83.4934 77.0317 86.0724 75.9666C88.6513 74.9015 91.4242 74.3865 94.2136 74.4546C96.9735 74.4031 99.7149 74.9149 102.27 75.9587C104.826 77.0025 107.141 78.5564 109.076 80.5255C111.096 82.6147 112.669 85.0941 113.698 87.8121C114.727 90.5301 115.191 93.4294 115.061 96.3328C115.296 102.138 113.344 107.82 109.591 112.255V112.255Z" stroke="#27272D" stroke-width="2" stroke-miterlimit="10"/>
</svg>
