<svg width="537" height="135" viewBox="0 0 537 135" fill="none" xmlns="http://www.w3.org/2000/svg">
<path d="M99.8261 55.1923H-44.461C-47.8542 55.1815 -51.1054 53.8253 -53.5048 51.4196C-55.9041 49.014 -57.2569 45.7544 -57.2676 42.3523C-57.2569 38.951 -55.9039 35.6923 -53.5043 33.2879C-51.1046 30.8836 -47.8535 29.5292 -44.461 29.5205H-14.0452C-10.6527 29.5097 -7.40242 28.1532 -5.00435 25.7474C-2.60626 23.3415 -1.25534 20.0819 -1.24672 16.6806C-1.25536 13.28 -2.60652 10.0212 -5.00484 7.61665C-7.40315 5.2121 -10.6535 3.8574 -14.0452 3.84875H-142.193C-145.586 3.85739 -148.837 5.21182 -151.237 7.61615C-153.636 10.0205 -154.989 13.2793 -155 16.6806V16.6806C-154.991 20.0833 -153.639 23.3441 -151.239 25.7502C-148.84 28.1563 -145.587 29.5119 -142.193 29.5205C-142.585 29.5205 -143.01 29.5205 -143.353 29.5779C-140.177 29.8769 -137.226 31.3508 -135.074 33.7123C-132.922 36.0739 -131.725 39.1539 -131.714 42.3523C-131.725 45.5508 -132.922 48.6308 -135.074 50.9923C-137.226 53.3539 -140.177 54.8277 -143.353 55.1268C-142.968 55.1695 -142.581 55.1914 -142.193 55.1923C-145.586 55.201 -148.837 56.5554 -151.237 58.9597C-153.636 61.364 -154.989 64.6228 -155 68.0241V68.0241C-154.991 71.4268 -153.639 74.6877 -151.239 77.0938C-148.84 79.4999 -145.587 80.8555 -142.193 80.8641H99.8261C103.219 80.8533 106.471 79.4971 108.87 77.0914C111.269 74.6858 112.622 71.4262 112.633 68.0241C112.622 64.6228 111.269 61.364 108.869 58.9597C106.47 56.5554 103.219 55.201 99.8261 55.1923Z" fill="#27272D"/>
<path d="M523.458 0.057373H485.071C477.588 0.057373 471.521 6.13783 471.521 13.6384C471.521 21.1391 477.588 27.2195 485.071 27.2195H523.458C530.942 27.2195 537.008 21.1391 537.008 13.6384C537.008 6.13783 530.942 0.057373 523.458 0.057373Z" fill="#27272D"/>
<path d="M432.464 27.0229H400.709C397.144 27.0337 393.729 28.4564 391.206 30.9812C388.683 33.5059 387.258 36.9279 387.241 40.5016C387.241 44.0867 388.658 47.5255 391.183 50.0644C393.708 52.6033 397.133 54.035 400.709 54.0459H490.551C494.118 54.0567 497.535 55.4819 500.057 58.0104C502.579 60.5389 504.001 63.9652 504.011 67.541C504.001 71.1175 502.579 74.5446 500.058 77.0744C497.536 79.6042 494.119 81.0313 490.551 81.0442H381.785C378.218 81.055 374.801 82.4803 372.279 85.0088C369.757 87.5373 368.335 90.9635 368.325 94.5393C368.333 98.1165 369.754 101.545 372.276 104.075C374.798 106.605 378.217 108.032 381.785 108.043H395.49C399.064 108.043 402.492 109.466 405.019 112C407.546 114.534 408.966 117.971 408.966 121.554C408.966 125.138 407.546 128.574 405.019 131.108C402.492 133.642 399.064 135.066 395.49 135.066H297.684C294.11 135.066 290.682 133.642 288.155 131.108C285.627 128.574 284.208 125.138 284.208 121.554C284.208 117.971 285.627 114.534 288.155 112C290.682 109.466 294.11 108.043 297.684 108.043H315.906C319.474 108.032 322.894 106.606 325.417 104.076C327.941 101.546 329.363 98.1173 329.374 94.5393C329.361 90.9628 327.938 87.5365 325.414 85.0083C322.891 82.48 319.473 81.055 315.906 81.0442H206.771C203.203 81.0334 199.783 79.6073 197.26 77.0773C194.736 74.5473 193.314 71.1189 193.303 67.541C193.314 63.9637 194.737 60.5362 197.26 58.0075C199.784 55.4788 203.204 54.0545 206.771 54.0459H344.075C347.643 54.0329 351.06 52.6058 353.582 50.076C356.103 47.5462 357.525 44.1191 357.535 40.5426C357.529 36.9632 356.11 33.5319 353.587 30.9986C351.065 28.4652 347.645 27.0359 344.075 27.0229H297.684C294.117 27.0121 290.698 25.5871 288.175 23.0589C285.652 20.5306 284.229 17.1044 284.216 13.5278C284.22 9.94561 285.64 6.51098 288.164 3.97566C290.688 1.44033 294.111 0.0108264 297.684 0L432.448 0C436.016 0.0107999 439.436 1.43693 441.959 3.96695C444.483 6.49697 445.905 9.92531 445.916 13.5033C445.91 17.0813 444.491 20.5113 441.971 23.0444C439.45 25.5775 436.033 27.0078 432.464 27.0229Z" fill="#27272D"/>
<path d="M45.2754 3.84875H25.853C18.7801 3.84875 13.0464 9.59741 13.0464 16.6887V16.6969C13.0464 23.7883 18.7801 29.5369 25.853 29.5369H45.2754C52.3483 29.5369 58.082 23.7883 58.082 16.6969V16.6887C58.082 9.59741 52.3483 3.84875 45.2754 3.84875Z" fill="#27272D"/>
</svg>
