<svg width="323" height="323" viewBox="0 0 323 323" fill="none" xmlns="http://www.w3.org/2000/svg">
<path d="M161.5 323C250.694 323 323 250.694 323 161.5C323 72.306 250.694 0 161.5 0C72.306 0 0 72.306 0 161.5C0 250.694 72.306 323 161.5 323Z" fill="url(#paint0_linear)"/>
<path d="M161.5 245.759C208.035 245.759 245.759 208.035 245.759 161.5C245.759 114.965 208.035 77.2412 161.5 77.2412C114.965 77.2412 77.2415 114.965 77.2415 161.5C77.2415 208.035 114.965 245.759 161.5 245.759Z" fill="url(#paint1_linear)"/>
<path d="M161.5 222.909C195.415 222.909 222.909 195.415 222.909 161.5C222.909 127.585 195.415 100.091 161.5 100.091C127.585 100.091 100.091 127.585 100.091 161.5C100.091 195.415 127.585 222.909 161.5 222.909Z" fill="url(#paint2_linear)"/>
<path d="M39.6449 102.268H62.4232C63.4337 102.29 64.4383 102.109 65.3782 101.737C66.318 101.365 67.1741 100.81 67.8963 100.102C68.6185 99.3953 69.1923 98.5511 69.5841 97.6194C69.9758 96.6876 70.1776 95.687 70.1776 94.6763C70.1776 93.6655 69.9758 92.665 69.5841 91.7332C69.1923 90.8015 68.6185 89.9573 67.8963 89.2501C67.1741 88.543 66.318 87.9872 65.3782 87.6153C64.4383 87.2433 63.4337 87.0627 62.4232 87.0841C61.5022 87.0838 60.5892 87.254 59.7302 87.5861C59.4162 85.6485 58.6557 83.8106 57.5089 82.2176C56.3621 80.6245 54.8605 79.3202 53.1227 78.4075C51.3849 77.4949 49.4587 76.999 47.4962 76.9591C45.5338 76.9192 43.589 77.3364 41.8155 78.1776C39.9321 75.5832 37.2759 73.6515 34.2274 72.6592C31.1789 71.6669 27.8945 71.665 24.8448 72.6537C21.7951 73.6424 19.1366 75.571 17.2502 78.1632C15.3637 80.7554 14.3461 83.8781 14.3432 87.0841C14.3432 87.2333 14.3432 87.3792 14.3432 87.5284C13.3009 87.1568 12.19 87.0175 11.0883 87.1204C9.98655 87.2232 8.92062 87.5657 7.96517 88.1238C7.00971 88.682 6.18784 89.4423 5.55713 90.3515C4.92642 91.2607 4.50211 92.2967 4.31393 93.3872C4.12576 94.4776 4.17826 95.5959 4.46777 96.6639C4.75728 97.7319 5.27679 98.7237 5.98991 99.5698C6.70303 100.416 7.59252 101.096 8.59606 101.562C9.5996 102.028 10.6929 102.269 11.7995 102.268H39.6449Z" fill="white"/>
<path d="M182.08 141.225C176.785 136.137 169.925 133.594 161.5 133.594C153.021 133.594 146.109 136.266 140.763 141.612C137.08 145.236 134.551 149.869 133.495 154.927H125.318C123.575 154.927 121.903 155.62 120.67 156.852C119.437 158.085 118.745 159.757 118.745 161.5C118.745 163.243 119.437 164.915 120.67 166.148C121.903 167.381 123.575 168.073 125.318 168.073H133.437C134.502 173.516 136.97 178.082 140.841 181.772C146.239 186.862 153.125 189.407 161.5 189.407C169.771 189.407 176.606 186.785 182.006 181.541C187.453 176.3 190.176 169.62 190.176 161.5C190.176 153.073 187.478 146.315 182.08 141.225ZM172.974 173.293C170.261 176.33 166.433 177.846 161.49 177.841C159.425 177.882 157.374 177.484 155.474 176.673C153.574 175.863 151.867 174.659 150.467 173.14C149.054 171.674 147.93 169.955 147.153 168.073H154.208C155.951 168.073 157.623 167.381 158.856 166.148C160.088 164.915 160.781 163.243 160.781 161.5C160.781 159.757 160.088 158.085 158.856 156.852C157.623 155.62 155.951 154.927 154.208 154.927H147.028C147.751 152.976 148.873 151.198 150.321 149.704C153.261 146.672 156.991 145.156 161.514 145.156C163.576 145.116 165.625 145.499 167.535 146.281C169.444 147.063 171.173 148.228 172.614 149.704C175.592 152.686 177.082 156.618 177.085 161.5C177.076 166.228 175.705 170.159 172.974 173.293Z" fill="white"/>
<path d="M307.551 176.559C300.99 174.917 294.063 175.6 287.95 178.491C281.836 181.383 276.914 186.305 274.021 192.418C269.903 189.146 264.798 187.366 259.539 187.368C258.861 187.368 258.22 187.415 257.568 187.47C254.834 179.654 249.421 173.059 242.289 168.853C235.157 164.646 226.766 163.1 218.604 164.488C210.441 165.875 203.033 170.108 197.692 176.435C192.351 182.762 189.422 190.776 189.423 199.056C189.423 199.395 189.423 199.734 189.451 200.073C187.045 199.217 184.481 198.897 181.939 199.136C179.396 199.374 176.937 200.166 174.733 201.455C172.528 202.743 170.632 204.498 169.177 206.597C167.722 208.695 166.744 211.087 166.31 213.603C165.876 216.119 165.997 218.7 166.665 221.165C167.333 223.629 168.532 225.918 170.178 227.871C171.823 229.823 173.875 231.393 176.191 232.469C178.507 233.545 181.029 234.102 183.583 234.101H305.791C317.141 211.581 323.036 186.708 323 161.49C323 158.234 322.903 155 322.708 151.79C315.156 158.229 309.847 166.903 307.551 176.559Z" fill="white"/>
<path d="M113.62 190.821C113.619 185.561 111.821 180.458 108.525 176.359C105.228 172.26 100.63 169.41 95.4923 168.281C90.3547 167.151 84.9854 167.811 80.2736 170.149C75.5618 172.488 71.7901 176.366 69.5831 181.141C66.9066 178.428 63.4823 176.574 59.7473 175.816C59.7473 175.687 59.7473 175.562 59.7473 175.433C59.746 168.585 57.917 161.861 54.4493 155.955C50.9815 150.05 46.0006 145.176 40.0206 141.839C34.0406 138.501 27.2782 136.82 20.4314 136.968C13.5846 137.116 6.90151 139.089 1.07183 142.683C0.352693 148.93 -0.00515555 155.212 7.258e-05 161.5C-0.0168389 179.33 2.92171 197.039 8.69625 213.908H90.5333C93.5651 213.908 96.5672 213.311 99.3683 212.15C102.169 210.99 104.714 209.29 106.858 207.146C109.002 205.002 110.703 202.457 111.863 199.656C113.023 196.855 113.62 193.853 113.62 190.821Z" fill="white"/>
<path d="M135.503 189.451C62.2672 178.859 21.1808 197.611 6.38306 206.599C25.902 273.845 87.9589 323 161.5 323C235.438 323 297.783 273.299 316.936 205.483C234.943 218.158 219.507 201.6 135.503 189.451Z" fill="url(#paint3_linear)"/>
<path d="M91.4692 152.963C91.4692 152.963 103.662 145.203 122.774 133.661L122.537 115.76L132.088 128.069C139.821 123.453 148.367 118.406 157.525 113.122L145.552 90.6723L167.354 107.471C171.243 105.239 175.204 102.993 179.238 100.732L168.368 86.7244L187.962 95.8819C212.517 82.278 238.87 68.4875 263.304 57.3121C234.909 77.2516 201.576 117.371 236.811 185.978C236.811 185.978 239.186 177.661 243.12 164.905L235.896 157.003L245.053 158.699C246.674 153.56 248.492 147.9 250.48 141.91L236.204 136.639L252.623 135.476C253.48 132.932 254.359 130.351 255.259 127.733L244.833 125.796L257.222 122.089C265.267 99.1718 274.835 73.7378 284.281 55.7485C271.799 41.1441 256.822 28.8736 240.047 19.5088C185.347 20.6212 118.908 46.8048 91.4692 152.963Z" fill="#18181C"/>
<path d="M169.243 242.503C230.73 242.503 225.666 222.021 149.497 222.021C125.942 222.021 43.552 224.056 12.22 223.218C36.4635 281.785 94.1689 322.99 161.5 322.99C182.972 323.017 204.233 318.749 224.031 310.436C243.829 302.124 261.765 289.935 276.782 274.588C252.511 274.011 224.924 273.699 193.799 273.699C132.06 273.706 116.218 242.503 169.243 242.503Z" fill="url(#paint4_linear)"/>
<defs>
<linearGradient id="paint0_linear" x1="161.5" y1="-22.1881" x2="161.5" y2="324.458" gradientUnits="userSpaceOnUse">
<stop stop-color="#15FFFB"/>
<stop offset="0.51" stop-color="#F9B233"/>
<stop offset="0.58" stop-color="#F38B30"/>
<stop offset="0.66" stop-color="#EE6C2E"/>
<stop offset="0.73" stop-color="#EB532C"/>
<stop offset="0.81" stop-color="#E8412B"/>
<stop offset="0.9" stop-color="#E7362A"/>
<stop offset="1" stop-color="#E6332A"/>
</linearGradient>
<linearGradient id="paint1_linear" x1="161.5" y1="237.785" x2="161.5" y2="77.0445" gradientUnits="userSpaceOnUse">
<stop stop-color="#EE2216"/>
<stop offset="1" stop-color="#F9B233"/>
</linearGradient>
<linearGradient id="paint2_linear" x1="161.5" y1="87.0228" x2="161.5" y2="208.311" gradientUnits="userSpaceOnUse">
<stop stop-color="#EE2216"/>
<stop offset="0.67" stop-color="#F9B233"/>
</linearGradient>
<linearGradient id="paint3_linear" x1="324.713" y1="174.846" x2="64.8957" y2="277.657" gradientUnits="userSpaceOnUse">
<stop stop-color="#E6332A"/>
<stop offset="1" stop-color="#F9B233"/>
</linearGradient>
<linearGradient id="paint4_linear" x1="144.501" y1="190.519" x2="144.501" y2="311.838" gradientUnits="userSpaceOnUse">
<stop stop-color="#47E98B"/>
<stop offset="1" stop-color="#FFDE55"/>
</linearGradient>
</defs>
</svg>
