<svg width="800" height="953" viewBox="0 0 800 953" fill="none" xmlns="http://www.w3.org/2000/svg">
<path d="M476.17 952.34C739.151 952.34 952.34 739.151 952.34 476.17C952.34 213.189 739.151 0 476.17 0C213.189 0 0 213.189 0 476.17C0 739.151 213.189 952.34 476.17 952.34Z" fill="url(#paint0_linear)"/>
<path d="M476.17 724.6C613.374 724.6 724.6 613.374 724.6 476.17C724.6 338.966 613.374 227.74 476.17 227.74C338.966 227.74 227.74 338.966 227.74 476.17C227.74 613.374 338.966 724.6 476.17 724.6Z" fill="url(#paint1_linear)"/>
<path d="M476.17 657.23C576.167 657.23 657.23 576.167 657.23 476.17C657.23 376.173 576.167 295.11 476.17 295.11C376.173 295.11 295.11 376.173 295.11 476.17C295.11 576.167 376.173 657.23 476.17 657.23Z" fill="url(#paint2_linear)"/>
<path d="M116.89 301.53H184.05C187.029 301.593 189.991 301.06 192.762 299.964C195.533 298.867 198.058 297.228 200.187 295.143C202.316 293.058 204.008 290.569 205.163 287.822C206.318 285.075 206.913 282.125 206.913 279.145C206.913 276.165 206.318 273.215 205.163 270.467C204.008 267.72 202.316 265.231 200.187 263.146C198.058 261.061 195.533 259.423 192.762 258.326C189.991 257.229 187.029 256.697 184.05 256.76C181.335 256.759 178.643 257.261 176.11 258.24C175.184 252.527 172.942 247.108 169.561 242.411C166.179 237.714 161.752 233.869 156.628 231.178C151.505 228.487 145.825 227.025 140.039 226.907C134.253 226.789 128.519 228.019 123.29 230.5C117.737 222.85 109.905 217.155 100.917 214.229C91.9285 211.304 82.2448 211.298 73.253 214.213C64.2613 217.128 56.4229 222.814 50.8609 230.457C45.2988 238.1 42.2986 247.307 42.2899 256.76C42.2899 257.2 42.2899 257.63 42.2899 258.07C39.2169 256.974 35.9415 256.563 32.6931 256.867C29.4447 257.17 26.3019 258.18 23.4848 259.825C20.6677 261.471 18.2445 263.713 16.3849 266.393C14.5253 269.074 13.2742 272.129 12.7194 275.344C12.1646 278.559 12.3194 281.856 13.173 285.005C14.0266 288.154 15.5583 291.078 17.6609 293.573C19.7635 296.068 22.3861 298.072 25.3449 299.447C28.3038 300.821 31.5274 301.532 34.7899 301.53H116.89Z" fill="white"/>
<path d="M536.85 416.39C521.237 401.39 501.01 393.89 476.17 393.89C451.17 393.89 430.79 401.77 415.03 417.53C404.168 428.215 396.712 441.875 393.6 456.79H369.49C364.35 456.79 359.421 458.832 355.786 462.466C352.152 466.101 350.11 471.03 350.11 476.17C350.11 481.31 352.152 486.239 355.786 489.874C359.421 493.508 364.35 495.55 369.49 495.55H393.43C396.57 511.597 403.847 525.06 415.26 535.94C431.173 550.947 451.477 558.45 476.17 558.45C500.557 558.45 520.71 550.72 536.63 535.26C552.69 519.807 560.72 500.11 560.72 476.17C560.72 451.323 552.763 431.397 536.85 416.39ZM510 510.94C502 519.893 490.713 524.363 476.14 524.35C470.051 524.47 464.005 523.296 458.403 520.907C452.801 518.518 447.769 514.967 443.64 510.49C439.475 506.167 436.161 501.099 433.87 495.55H454.67C459.81 495.55 464.739 493.508 468.374 489.874C472.008 486.239 474.05 481.31 474.05 476.17C474.05 471.03 472.008 466.101 468.374 462.466C464.739 458.832 459.81 456.79 454.67 456.79H433.5C435.632 451.038 438.939 445.794 443.21 441.39C451.877 432.45 462.877 427.98 476.21 427.98C482.292 427.862 488.334 428.991 493.963 431.298C499.592 433.604 504.689 437.039 508.94 441.39C517.72 450.183 522.113 461.777 522.12 476.17C522.093 490.11 518.053 501.7 510 510.94Z" fill="white"/>
<path d="M906.79 520.57C887.446 515.728 867.022 517.742 848.997 526.268C830.971 534.794 816.458 549.305 807.93 567.33C795.788 557.684 780.737 552.435 765.23 552.44C763.23 552.44 761.34 552.58 759.42 552.74C751.357 529.697 735.398 510.252 714.37 497.849C693.342 485.447 668.603 480.887 644.535 484.979C620.468 489.071 598.626 501.55 582.878 520.205C567.131 538.86 558.495 562.487 558.5 586.9C558.5 587.9 558.5 588.9 558.58 589.9C551.487 587.376 543.928 586.433 536.432 587.136C528.936 587.84 521.685 590.173 515.185 593.973C508.686 597.773 503.096 602.948 498.806 609.135C494.516 615.322 491.63 622.372 490.351 629.792C489.072 637.211 489.43 644.82 491.4 652.087C493.369 659.353 496.904 666.102 501.755 671.859C506.607 677.616 512.658 682.244 519.485 685.417C526.313 688.59 533.751 690.233 541.28 690.23H901.6C935.064 623.832 952.445 550.494 952.34 476.14C952.34 466.54 952.053 457.007 951.48 447.54C929.212 466.525 913.561 492.102 906.79 520.57Z" fill="white"/>
<path d="M335 562.62C334.997 547.11 329.696 532.067 319.976 519.981C310.256 507.895 296.699 499.492 281.551 496.162C266.403 492.833 250.572 494.776 236.68 501.672C222.788 508.568 211.667 520.002 205.16 534.08C197.269 526.081 187.172 520.615 176.16 518.38C176.16 518 176.16 517.63 176.16 517.25C176.156 497.058 170.764 477.233 160.539 459.821C150.315 442.409 135.629 428.041 117.997 418.2C100.366 408.359 80.4275 403.401 60.2403 403.839C40.053 404.277 20.3483 410.094 3.15997 420.69C1.03964 439.107 -0.0154449 457.631 -3.01441e-05 476.17C-0.0498924 528.74 8.61419 580.954 25.64 630.69H266.93C275.869 630.69 284.721 628.929 292.979 625.509C301.238 622.088 308.742 617.074 315.063 610.753C321.384 604.432 326.398 596.928 329.818 588.669C333.239 580.411 335 571.559 335 562.62Z" fill="white"/>
<path d="M399.52 558.58C183.59 527.35 62.4499 582.64 18.8199 609.14C76.3699 807.41 259.34 952.34 476.17 952.34C694.17 952.34 877.99 805.8 934.46 605.85C692.71 643.22 647.2 594.4 399.52 558.58Z" fill="url(#paint3_linear)"/>
<path d="M269.69 451C269.69 451 305.64 428.12 361.99 394.09L361.29 341.31L389.45 377.6C412.25 363.99 437.45 349.11 464.45 333.53L429.15 267.34L493.43 316.87C504.897 310.29 516.577 303.667 528.47 297L496.42 255.7L554.19 282.7C626.59 242.59 704.29 201.93 776.33 168.98C692.61 227.77 594.33 346.06 698.22 548.34C698.22 548.34 705.22 523.82 716.82 486.21L695.52 462.91L722.52 467.91C727.3 452.76 732.66 436.07 738.52 418.41L696.43 402.87L744.84 399.44C747.367 391.94 749.957 384.33 752.61 376.61L721.87 370.9L758.4 359.97C782.12 292.4 810.33 217.41 838.18 164.37C801.378 121.31 757.218 85.1313 707.76 57.52C546.48 60.8 350.59 138 269.69 451Z" fill="#18181C"/>
<path d="M499 715C680.29 715 665.36 654.61 440.78 654.61C371.33 654.61 128.41 660.61 36.0299 658.14C107.51 830.82 277.65 952.31 476.17 952.31C539.479 952.39 602.165 939.805 660.539 915.296C718.912 890.788 771.793 854.851 816.07 809.6C744.51 807.9 663.17 806.98 571.4 806.98C389.37 807 342.66 715 499 715Z" fill="url(#paint4_linear)"/>
<defs>
<linearGradient id="paint0_linear" x1="476.17" y1="-65.42" x2="476.17" y2="956.64" gradientUnits="userSpaceOnUse">
<stop stop-color="#15FFFB"/>
<stop offset="0.51" stop-color="#F9B233"/>
<stop offset="0.58" stop-color="#F38B30"/>
<stop offset="0.66" stop-color="#EE6C2E"/>
<stop offset="0.73" stop-color="#EB532C"/>
<stop offset="0.81" stop-color="#E8412B"/>
<stop offset="0.9" stop-color="#E7362A"/>
<stop offset="1" stop-color="#E6332A"/>
</linearGradient>
<linearGradient id="paint1_linear" x1="476.17" y1="701.09" x2="476.17" y2="227.16" gradientUnits="userSpaceOnUse">
<stop stop-color="#EE2216"/>
<stop offset="1" stop-color="#F9B233"/>
</linearGradient>
<linearGradient id="paint2_linear" x1="476.17" y1="256.58" x2="476.17" y2="614.19" gradientUnits="userSpaceOnUse">
<stop stop-color="#EE2216"/>
<stop offset="0.67" stop-color="#F9B233"/>
</linearGradient>
<linearGradient id="paint3_linear" x1="957.39" y1="515.52" x2="191.34" y2="818.65" gradientUnits="userSpaceOnUse">
<stop stop-color="#E6332A"/>
<stop offset="1" stop-color="#F9B233"/>
</linearGradient>
<linearGradient id="paint4_linear" x1="426.05" y1="561.73" x2="426.05" y2="919.43" gradientUnits="userSpaceOnUse">
<stop stop-color="#47E98B"/>
<stop offset="1" stop-color="#FFDE55"/>
</linearGradient>
</defs>
</svg>
