<svg width="546" height="107" viewBox="0 0 546 107" fill="none" xmlns="http://www.w3.org/2000/svg">
<g clip-path="url(#clip0)">
<path d="M201.062 43.7451H87.2172C84.5399 43.7365 81.9747 42.6616 80.0815 40.7549C78.1883 38.8482 77.121 36.2646 77.1125 33.5682C77.121 30.8723 78.1886 28.2895 80.0819 26.3838C81.9752 24.4782 84.5405 23.4046 87.2172 23.3978H111.216C113.892 23.3892 116.457 22.3141 118.349 20.4072C120.241 18.5003 121.307 15.9168 121.314 13.2209C121.307 10.5257 120.241 7.94278 118.349 6.03695C116.456 4.13111 113.892 3.05739 111.216 3.05054H10.1047C7.42795 3.05738 4.86271 4.1309 2.96937 6.03655C1.07604 7.9422 0.00850513 10.5251 0 13.2209H0C0.0068052 15.9179 1.07359 18.5024 2.96711 20.4095C4.86062 22.3165 7.42683 23.3909 10.1047 23.3978C9.79534 23.3978 9.46024 23.3978 9.18958 23.4432C11.6956 23.6803 14.0243 24.8485 15.7219 26.7202C17.4196 28.5919 18.3645 31.0331 18.3727 33.5682C18.3645 36.1033 17.4196 38.5445 15.7219 40.4162C14.0243 42.2879 11.6956 43.4561 9.18958 43.6931C9.49346 43.727 9.79893 43.7443 10.1047 43.7451C7.42795 43.7519 4.86271 44.8254 2.96937 46.7311C1.07604 48.6367 0.00850513 51.2196 0 53.9155H0C0.0068052 56.6124 1.07359 59.197 2.96711 61.104C4.86062 63.0111 7.42683 64.0855 10.1047 64.0923H201.062C203.74 64.0838 206.305 63.0088 208.198 61.1021C210.091 59.1955 211.158 56.6119 211.167 53.9155C211.158 51.2196 210.091 48.6367 208.198 46.7311C206.304 44.8254 203.739 43.7519 201.062 43.7451Z" fill="#27272D"/>
<path d="M535.315 0.0454102H505.027C499.123 0.0454102 494.336 4.86473 494.336 10.8097C494.336 16.7546 499.123 21.5739 505.027 21.5739H535.315C541.22 21.5739 546.007 16.7546 546.007 10.8097C546.007 4.86473 541.22 0.0454102 535.315 0.0454102Z" fill="#27272D"/>
<path d="M463.519 21.4182H438.464C435.652 21.4267 432.956 22.5544 430.966 24.5554C428.975 26.5565 427.851 29.2688 427.837 32.1013C427.837 34.9428 428.956 37.6684 430.948 39.6807C432.94 41.693 435.643 42.8278 438.464 42.8363H509.351C512.165 42.8449 514.862 43.9746 516.852 45.9786C518.841 47.9827 519.963 50.6983 519.972 53.5325C519.963 56.3672 518.842 59.0835 516.852 61.0886C514.862 63.0937 512.166 64.2248 509.351 64.2351H423.532C420.718 64.2436 418.022 65.3733 416.032 67.3773C414.042 69.3814 412.921 72.097 412.912 74.9312C412.919 77.7664 414.04 80.4837 416.03 82.4892C418.02 84.4946 420.717 85.6252 423.532 85.6338H434.346C437.166 85.6338 439.871 86.762 441.865 88.7704C443.859 90.7787 444.979 93.5026 444.979 96.3428C444.979 99.1831 443.859 101.907 441.865 103.915C439.871 105.924 437.166 107.052 434.346 107.052H357.175C354.355 107.052 351.651 105.924 349.657 103.915C347.663 101.907 346.542 99.1831 346.542 96.3428C346.542 93.5026 347.663 90.7787 349.657 88.7704C351.651 86.762 354.355 85.6338 357.175 85.6338H371.553C374.368 85.6252 377.066 84.4949 379.058 82.4896C381.049 80.4843 382.171 77.767 382.179 74.9312C382.169 72.0964 381.046 69.3808 379.055 67.3769C377.064 65.373 374.367 64.2436 371.553 64.2351H285.444C282.628 64.2265 279.93 63.0961 277.939 61.0909C275.948 59.0856 274.826 56.3683 274.817 53.5325C274.826 50.6972 275.948 47.9806 277.94 45.9763C279.931 43.9721 282.629 42.8432 285.444 42.8363H393.779C396.594 42.8261 399.29 41.695 401.28 39.6899C403.269 37.6848 404.391 34.9685 404.399 32.1338C404.394 29.2967 403.274 26.5771 401.284 24.5692C399.294 22.5613 396.596 21.4285 393.779 21.4182H357.175C354.361 21.4096 351.664 20.2802 349.673 18.2763C347.682 16.2724 346.559 13.5568 346.549 10.7221C346.552 7.88282 347.672 5.16055 349.664 3.15108C351.655 1.1416 354.356 0.00858092 357.175 0L463.507 0C466.322 0.00855989 469.02 1.1389 471.011 3.14417C473.002 5.14945 474.125 7.86672 474.133 10.7026C474.128 13.5385 473.009 16.2571 471.02 18.2648C469.032 20.2725 466.335 21.4062 463.519 21.4182Z" fill="#27272D"/>
<path d="M158.021 3.05054H142.696C137.116 3.05054 132.592 7.60688 132.592 13.2274V13.2339C132.592 18.8544 137.116 23.4108 142.696 23.4108H158.021C163.601 23.4108 168.125 18.8544 168.125 13.2339V13.2274C168.125 7.60688 163.601 3.05054 158.021 3.05054Z" fill="#27272D"/>
</g>
<defs>
<clipPath id="clip0">
<rect width="546" height="107" fill="white"/>
</clipPath>
</defs>
</svg>
