<svg width="240" height="104" viewBox="0 0 240 104" fill="none" xmlns="http://www.w3.org/2000/svg">
<path d="M218.791 83.0718H202.924C197.146 83.0718 192.462 87.7554 192.462 93.5329V93.5391C192.462 99.3166 197.146 104 202.924 104H218.791C224.569 104 229.253 99.3166 229.253 93.5391V93.5329C229.253 87.7554 224.569 83.0718 218.791 83.0718Z" fill="url(#paint0_linear)"/>
<path d="M184.742 20.7988H160.21C157.454 20.8069 154.813 21.9052 152.865 23.8537C150.916 25.8022 149.817 28.4426 149.809 31.1981C149.817 33.9537 150.916 36.5941 152.865 38.5426C154.813 40.4911 157.454 41.5894 160.21 41.5975H229.599C232.355 41.6057 234.996 42.7039 236.945 44.6524C238.893 46.6009 239.992 49.2413 240 51.9969C239.993 54.7536 238.896 57.3955 236.947 59.3454C234.998 61.2952 232.356 62.3943 229.599 62.4025H145.603C142.847 62.4106 140.207 63.5089 138.258 65.4574C136.309 67.4059 135.211 70.0463 135.203 72.8019C135.211 75.5574 136.309 78.1978 138.258 80.1463C140.207 82.0948 142.847 83.1931 145.603 83.2012H156.195C158.954 83.2012 161.599 84.2969 163.55 86.2471C165.5 88.1974 166.596 90.8425 166.596 93.6006C166.596 96.3587 165.5 99.0038 163.55 100.954C161.599 102.904 158.954 104 156.195 104H80.63C77.8715 104 75.2261 102.904 73.2756 100.954C71.3251 99.0038 70.2293 96.3587 70.2293 93.6006C70.2293 90.8425 71.3251 88.1974 73.2756 86.2471C75.2261 84.2969 77.8715 83.2012 80.63 83.2012H94.7055C97.4614 83.1931 100.102 82.0948 102.051 80.1463C104 78.1978 105.098 75.5574 105.106 72.8019C105.1 70.0458 104.002 67.4044 102.053 65.4556C100.104 63.5067 97.4619 62.409 94.7055 62.4025H10.4007C7.64369 62.3943 5.00203 61.2952 3.05311 59.3454C1.1042 57.3955 0.00651726 54.7536 0 51.9969H0C0.00814645 49.2413 1.10655 46.6009 3.05529 44.6524C5.00403 42.7039 7.64475 41.6057 10.4007 41.5975H116.464C119.22 41.5894 121.861 40.4911 123.81 38.5426C125.758 36.5941 126.857 33.9537 126.865 31.1981C126.857 28.4426 125.758 25.8022 123.81 23.8537C121.861 21.9052 119.22 20.8069 116.464 20.7988H80.6423C77.8864 20.7906 75.2457 19.6924 73.2969 17.7439C71.3482 15.7954 70.2498 13.155 70.2416 10.3994C70.2498 7.64593 71.3465 5.0074 73.2925 3.05925C75.2386 1.1111 77.8762 0.0113996 80.63 0L184.742 0C187.502 0.00162193 190.149 1.097 192.103 3.04621C194.057 4.99541 195.159 7.63953 195.167 10.3994C195.159 13.1592 194.057 15.8034 192.103 17.7526C190.149 19.7018 187.502 20.7971 184.742 20.7988Z" fill="#27272D"/>
<defs>
<linearGradient id="paint0_linear" x1="162.353" y1="59.704" x2="239.487" y2="113.513" gradientUnits="userSpaceOnUse">
<stop stop-color="#47E98B"/>
<stop offset="1" stop-color="#FFDE55"/>
</linearGradient>
</defs>
</svg>
