<svg width="33" height="37" viewBox="0 0 33 33" fill="none" xmlns="http://www.w3.org/2000/svg">
<path d="M7.05843 15.2035C7.05576 14.8472 7.19407 14.5043 7.44322 14.2495C7.69236 13.9947 8.03213 13.8488 8.38843 13.8435H10.6584C11.0191 13.8435 11.3651 13.9868 11.6201 14.2419C11.8751 14.4969 12.0184 14.8428 12.0184 15.2035V23.7635C12.2784 23.6835 12.5984 23.6035 12.9584 23.5235C13.2097 23.4666 13.4339 23.3254 13.5939 23.1235C13.754 22.9217 13.8403 22.6712 13.8384 22.4135V11.8135C13.8384 11.4528 13.9817 11.1069 14.2368 10.8519C14.4918 10.5968 14.8377 10.4535 15.1984 10.4535H17.4884C17.8491 10.4535 18.1951 10.5968 18.4501 10.8519C18.7051 11.1069 18.8484 11.4528 18.8484 11.8135V21.6635L19.9684 21.2035C20.1737 21.1154 20.3485 20.9688 20.4711 20.7822C20.5938 20.5955 20.6589 20.3769 20.6584 20.1535V8.41354C20.6584 8.05285 20.8017 7.70693 21.0568 7.45188C21.3118 7.19683 21.6577 7.05354 22.0184 7.05354H24.2884C24.6491 7.05354 24.9951 7.19683 25.2501 7.45188C25.5051 7.70693 25.6484 8.05285 25.6484 8.41354V18.0835C27.7322 16.6215 29.5975 14.8706 31.1884 12.8835C31.4157 12.5837 31.5656 12.2326 31.6249 11.8611C31.6842 11.4896 31.6511 11.1092 31.5284 10.7535C30.1334 6.74214 27.202 3.44922 23.379 1.59917C19.5561 -0.250876 15.1548 -0.506496 11.1434 0.888542C7.13204 2.28358 3.83911 5.215 1.98906 9.03793C0.139017 12.8609 -0.116604 17.2621 1.27843 21.2735C1.60482 22.2174 2.02002 23.1281 2.51844 23.9935C2.70947 24.3286 2.9933 24.6012 3.33572 24.7786C3.67815 24.956 4.06457 25.0307 4.44843 24.9935C4.87843 24.9935 5.44843 24.9035 6.04843 24.8335C6.3242 24.7994 6.578 24.6658 6.76215 24.4577C6.94629 24.2496 7.0481 23.9814 7.04843 23.7035V15.2035" fill="#18181C"/>
<path d="M7.00854 28.9236C9.39479 30.6673 12.2174 31.716 15.1633 31.9534C18.1092 32.1908 21.0633 31.6076 23.698 30.2685C26.3327 28.9294 28.545 26.8868 30.0896 24.367C31.6342 21.8473 32.4507 18.949 32.4485 15.9936C32.4485 15.6236 32.4485 15.2536 32.4485 14.8936C26.5885 23.6236 15.7885 27.7036 7.04854 28.9436" fill="#18181C"/>
</svg>
