<svg width="32" height="37" viewBox="0 0 32 37" fill="none" xmlns="http://www.w3.org/2000/svg">
<path d="M19.3499 15.2098C18.9499 15.1837 18.5512 15.2785 18.2056 15.4818C17.8601 15.6852 17.5836 15.9877 17.4121 16.3501C17.2407 16.7124 17.182 17.118 17.2439 17.5141C17.3057 17.9103 17.4852 18.2787 17.759 18.5715C18.0329 18.8644 18.3884 19.0682 18.7795 19.1565C19.1705 19.2448 19.5791 19.2135 19.9522 19.0667C20.3253 18.9199 20.6456 18.6644 20.8717 18.3332C21.0978 18.0021 21.2191 17.6107 21.2199 17.2098C21.2306 16.9552 21.1905 16.7009 21.102 16.462C21.0134 16.223 20.8781 16.004 20.7041 15.8179C20.53 15.6317 20.3206 15.4821 20.0882 15.3777C19.8557 15.2733 19.6047 15.2162 19.3499 15.2098ZM12.6799 15.2098C12.1495 15.2098 11.6408 15.4205 11.2657 15.7956C10.8906 16.1707 10.6799 16.6794 10.6799 17.2098C10.6799 17.7402 10.8906 18.2489 11.2657 18.624C11.6408 18.9991 12.1495 19.2098 12.6799 19.2098C13.2104 19.2098 13.7191 18.9991 14.0941 18.624C14.4692 18.2489 14.6799 17.7402 14.6799 17.2098C14.6799 16.6794 14.4692 16.1707 14.0941 15.7956C13.7191 15.4205 13.2104 15.2098 12.6799 15.2098Z" fill="#18181C"/>
<path d="M28.24 0H3.75001C2.75545 0 1.80162 0.395088 1.09836 1.09835C0.395101 1.80161 1.33345e-05 2.75544 1.33345e-05 3.75V28.24C-0.00130213 28.7333 0.0947237 29.222 0.28259 29.6781C0.470456 30.1343 0.74647 30.5488 1.09482 30.8981C1.44317 31.2474 1.85701 31.5245 2.31264 31.7136C2.76826 31.9027 3.25671 32 3.75001 32H24.47L23.47 28.66L25.81 30.81L28.02 32.81L32 36.24V3.75C31.9921 2.75614 31.5932 1.80538 30.8894 1.10353C30.1857 0.401679 29.2339 0.00522747 28.24 0V0ZM21.18 23.67C21.18 23.67 20.52 22.88 19.97 22.2C21.2925 21.8963 22.4649 21.1348 23.28 20.05C22.6216 20.4857 21.9174 20.8479 21.18 21.13C20.327 21.4838 19.4386 21.7453 18.53 21.91C16.9673 22.2069 15.3627 22.2069 13.8 21.91C12.8795 21.7406 11.9784 21.4793 11.11 21.13C10.6544 20.9507 10.2103 20.7436 9.78001 20.51L9.61001 20.42C9.61001 20.42 9.61001 20.42 9.54001 20.42C9.35249 20.308 9.17214 20.1844 9.00001 20.05C9.78912 21.1098 10.9191 21.8655 12.2 22.19C11.65 22.88 10.97 23.68 10.97 23.68C9.88733 23.7131 8.81311 23.4796 7.84185 23.0001C6.87058 22.5205 6.03205 21.8097 5.40001 20.93C5.47102 17.2502 6.38078 13.6351 8.06001 10.36C9.53191 9.21741 11.3191 8.55421 13.18 8.46L13.36 8.68C11.6039 9.1009 9.96616 9.91465 8.57001 11.06C8.57001 11.06 8.97001 10.84 9.65001 10.54C10.9699 9.95652 12.368 9.56909 13.8 9.39C13.91 9.39 14 9.39 14.11 9.39C17.2762 8.96353 20.4959 9.55912 23.3 11.09C21.9665 10.0027 20.4147 9.2149 18.75 8.78L19 8.46C20.8588 8.54979 22.6441 9.21359 24.11 10.36C25.7788 13.6376 26.6783 17.2525 26.74 20.93C26.1021 21.8028 25.2621 22.5079 24.292 22.9851C23.322 23.4623 22.2507 23.6973 21.17 23.67H21.18Z" fill="#18181C"/>
</svg>
