<svg width="33" height="37" viewBox="0 0 33 32" fill="none" xmlns="http://www.w3.org/2000/svg">
<path d="M16.3899 0C13.2254 0 10.132 0.938384 7.50078 2.69649C4.86959 4.45459 2.81883 6.95345 1.60783 9.87706C0.396825 12.8007 0.0799718 16.0177 0.697335 19.1214C1.3147 22.2251 2.83855 25.0761 5.07619 27.3137C7.31383 29.5513 10.1648 31.0752 13.2685 31.6926C16.3722 32.3099 19.5892 31.9931 22.5128 30.7821C25.4365 29.5711 27.9353 27.5203 29.6934 24.8891C31.4515 22.2579 32.3899 19.1645 32.3899 16C32.3899 11.7565 30.7042 7.68687 27.7036 4.68629C24.703 1.68571 20.6334 0 16.3899 0V0ZM23.2299 15.77L22.1199 23C22.1199 23 22.0299 24.06 21.1999 24.25C20.3585 24.2411 19.5446 23.9487 18.8899 23.42C18.6999 23.28 15.4199 21.2 14.2599 20.18C14.1386 20.0962 14.0404 19.9833 13.9741 19.8516C13.9078 19.7199 13.8757 19.5737 13.8807 19.4263C13.8857 19.279 13.9276 19.1353 14.0026 19.0084C14.0776 18.8815 14.1832 18.7754 14.3099 18.7L19.1599 14.07C19.7199 13.52 20.2699 12.22 17.9599 13.8L11.4899 18.22C11.1604 18.3661 10.8052 18.4457 10.4449 18.4542C10.0845 18.4628 9.72602 18.4002 9.3899 18.27L6.3899 17.34C6.3899 17.34 5.2799 16.65 7.1699 15.95C11.7999 13.78 17.4799 11.56 22.5199 9.48C22.5199 9.48 24.1899 8.83 24.0499 10.4C23.9699 11.05 23.5599 13.32 23.2299 15.77Z" fill="#18181C"/>
</svg>
