<svg width="40" height="37" viewBox="0 0 40 32" fill="none" xmlns="http://www.w3.org/2000/svg">
<path fill-rule="evenodd" clip-rule="evenodd" d="M39.39 3.76551C37.9156 4.41869 36.3515 4.8468 34.75 5.03551C36.4365 4.02565 37.6983 2.43692 38.3 0.565514C36.7184 1.52361 34.9827 2.2003 33.17 2.56551C32.0612 1.37931 30.6211 0.554228 29.037 0.197571C27.4529 -0.159086 25.7981 -0.0308067 24.2879 0.565723C22.7777 1.16225 21.482 2.19943 20.5692 3.54234C19.6564 4.88526 19.1689 6.47177 19.17 8.09551C19.1678 8.71495 19.2383 9.3325 19.38 9.93551C16.1676 9.76435 13.0268 8.92118 10.1605 7.4605C7.29429 5.99981 4.76634 3.9541 2.74 1.45551C1.70792 3.23435 1.39297 5.33979 1.85934 7.34278C2.32571 9.34576 3.5383 11.0955 5.25 12.2355C3.96809 12.1963 2.71377 11.8536 1.59 11.2355V11.3355C1.59 13.2007 2.23531 15.0085 3.41642 16.4521C4.59754 17.8957 6.24173 18.8862 8.07 19.2555C7.37515 19.4408 6.65914 19.535 5.94 19.5355C5.43014 19.535 4.92138 19.4881 4.42 19.3955C4.94611 20.9985 5.95903 22.3975 7.31769 23.3977C8.67635 24.3978 10.3131 24.9494 12 24.9755C9.14755 27.215 5.62653 28.4333 2 28.4355C1.33216 28.4436 0.664411 28.4135 0 28.3455C3.69566 30.7204 7.99708 31.9806 12.39 31.9755C27.25 31.9755 35.39 19.6655 35.39 8.97551C35.39 8.62551 35.39 8.27551 35.39 7.97551C36.9614 6.8312 38.3159 5.41568 39.39 3.79551V3.76551Z" fill="#18181C"/>
</svg>
