<svg width="487" height="487" viewBox="0 0 487 487" fill="none" xmlns="http://www.w3.org/2000/svg">
<path d="M243.99 398.7C331.566 398.7 402.56 327.706 402.56 240.13C402.56 152.554 331.566 81.5601 243.99 81.5601C156.414 81.5601 85.42 152.554 85.42 240.13C85.42 327.706 156.414 398.7 243.99 398.7Z" fill="url(#paint0_linear)"/>
<path d="M243.99 355.7C307.818 355.7 359.56 303.958 359.56 240.13C359.56 176.303 307.818 124.56 243.99 124.56C180.163 124.56 128.42 176.303 128.42 240.13C128.42 303.958 180.163 355.7 243.99 355.7Z" fill="url(#paint1_linear)"/>
<path d="M177 243.5C177 225.04 183.137 209.673 195.41 197.4C207.803 185.02 223.833 178.827 243.5 178.82C263.027 178.82 278.93 184.717 291.21 196.51C303.737 208.303 310 223.967 310 243.5C310 262.32 303.667 277.82 291 290C278.493 302.153 262.65 308.23 243.47 308.23C224.05 308.23 208.09 302.333 195.59 290.54C183.197 278.713 177 263.033 177 243.5ZM207.38 243.5C207.38 254.1 210.893 263.1 217.92 270.5C221.165 274.021 225.121 276.814 229.525 278.693C233.929 280.571 238.682 281.494 243.47 281.4C254.897 281.4 263.77 277.887 270.09 270.86C276.403 263.593 279.56 254.48 279.56 243.52C279.56 232.187 276.107 223.073 269.2 216.18C265.859 212.759 261.852 210.058 257.427 208.245C253.001 206.433 248.251 205.546 243.47 205.64C232.99 205.64 224.353 209.153 217.56 216.18C210.767 223.207 207.383 232.313 207.41 243.5H207.38Z" fill="white"/>
<path d="M227.9 227.41H162.62C153.734 227.41 146.53 234.611 146.53 243.495C146.53 252.378 153.734 259.58 162.62 259.58H227.9C236.786 259.58 243.99 252.378 243.99 243.495C243.99 234.611 236.786 227.41 227.9 227.41Z" fill="white"/>
<path d="M243.5 486.5C377.705 486.5 486.5 377.705 486.5 243.5C486.5 109.295 377.705 0.5 243.5 0.5C109.295 0.5 0.5 109.295 0.5 243.5C0.5 377.705 109.295 486.5 243.5 486.5Z" stroke="url(#paint2_linear)" stroke-miterlimit="10" stroke-linecap="round"/>
<path d="M243.5 429.26C346.092 429.26 429.26 346.092 429.26 243.5C429.26 140.908 346.092 57.74 243.5 57.74C140.908 57.74 57.74 140.908 57.74 243.5C57.74 346.092 140.908 429.26 243.5 429.26Z" stroke="url(#paint3_linear)" stroke-width="0.76" stroke-miterlimit="10" stroke-linecap="round" stroke-dasharray="11.01 11.01"/>
<path d="M378.36 67.49C389.809 67.49 399.09 58.2089 399.09 46.76C399.09 35.3112 389.809 26.03 378.36 26.03C366.911 26.03 357.63 35.3112 357.63 46.76C357.63 58.2089 366.911 67.49 378.36 67.49Z" fill="url(#paint4_linear)"/>
<path d="M62.89 460.81C89.4328 460.81 110.95 439.293 110.95 412.75C110.95 386.207 89.4328 364.69 62.89 364.69C36.3471 364.69 14.83 386.207 14.83 412.75C14.83 439.293 36.3471 460.81 62.89 460.81Z" fill="url(#paint5_linear)"/>
<path d="M62.8899 470.69C94.8893 470.69 120.83 444.749 120.83 412.75C120.83 380.751 94.8893 354.81 62.8899 354.81C30.8906 354.81 4.94995 380.751 4.94995 412.75C4.94995 444.749 30.8906 470.69 62.8899 470.69Z" stroke="url(#paint6_linear)" stroke-miterlimit="10"/>
<path d="M38.0499 136.17C50.8795 136.17 61.2799 125.77 61.2799 112.94C61.2799 100.11 50.8795 89.71 38.0499 89.71C25.2204 89.71 14.8199 100.11 14.8199 112.94C14.8199 125.77 25.2204 136.17 38.0499 136.17Z" fill="url(#paint7_linear)"/>
<path d="M378.36 479.73C396.856 479.73 411.85 464.736 411.85 446.24C411.85 427.744 396.856 412.75 378.36 412.75C359.864 412.75 344.87 427.744 344.87 446.24C344.87 464.736 359.864 479.73 378.36 479.73Z" fill="url(#paint8_linear)"/>
<defs>
<linearGradient id="paint0_linear" x1="243.99" y1="383.7" x2="243.99" y2="81.1801" gradientUnits="userSpaceOnUse">
<stop stop-color="#EE2216"/>
<stop offset="1" stop-color="#F9B233"/>
</linearGradient>
<linearGradient id="paint1_linear" x1="243.99" y1="99.9601" x2="243.99" y2="328.23" gradientUnits="userSpaceOnUse">
<stop stop-color="#EE2216"/>
<stop offset="0.67" stop-color="#F9B233"/>
</linearGradient>
<linearGradient id="paint2_linear" x1="243.5" y1="-1.32987e-08" x2="243.5" y2="487" gradientUnits="userSpaceOnUse">
<stop stop-color="#EE2216"/>
<stop offset="0.02" stop-color="#EE2517"/>
<stop offset="0.49" stop-color="#F47126"/>
<stop offset="0.83" stop-color="#F8A02F"/>
<stop offset="1" stop-color="#F9B233"/>
</linearGradient>
<linearGradient id="paint3_linear" x1="90522.9" y1="21368.1" x2="90522.9" y2="159678" gradientUnits="userSpaceOnUse">
<stop stop-color="#EE2216"/>
<stop offset="0.02" stop-color="#EE2517"/>
<stop offset="0.49" stop-color="#F47126"/>
<stop offset="0.83" stop-color="#F8A02F"/>
<stop offset="1" stop-color="#F9B233"/>
</linearGradient>
<linearGradient id="paint4_linear" x1="378.36" y1="18.52" x2="378.36" y2="68.38" gradientUnits="userSpaceOnUse">
<stop stop-color="#2AC6FF"/>
<stop offset="1" stop-color="#0060AA"/>
</linearGradient>
<linearGradient id="paint5_linear" x1="62.89" y1="353.21" x2="62.89" y2="458.89" gradientUnits="userSpaceOnUse">
<stop stop-color="#33FFD9"/>
<stop offset="1" stop-color="#F9B233"/>
</linearGradient>
<linearGradient id="paint6_linear" x1="7292.64" y1="41413.4" x2="7292.64" y2="54956.3" gradientUnits="userSpaceOnUse">
<stop stop-color="#33FFD9"/>
<stop offset="1" stop-color="#F9B233"/>
</linearGradient>
<linearGradient id="paint7_linear" x1="38.0499" y1="133.97" x2="38.0499" y2="89.66" gradientUnits="userSpaceOnUse">
<stop stop-color="#FF1528"/>
<stop offset="1" stop-color="#F8A931"/>
</linearGradient>
<linearGradient id="paint8_linear" x1="378.36" y1="476.57" x2="378.36" y2="412.68" gradientUnits="userSpaceOnUse">
<stop stop-color="#CC278B"/>
<stop offset="1" stop-color="#F9B233"/>
</linearGradient>
</defs>
</svg>
